<svg width="12" height="11" viewBox="0 0 12 11" fill="none" xmlns="http://www.w3.org/2000/svg">
<path d="M11.25 4.9428H2.35125L5.076 1.6728C5.3415 1.3548 5.298 0.881553 4.98 0.616803C4.66125 0.351303 4.18875 0.394803 3.924 0.712803L0.174 5.2128C0.14475 5.24805 0.12975 5.2893 0.108 5.3283C0.09 5.3598 0.06825 5.3868 0.05475 5.4213C0.021 5.50755 0.000749946 5.5983 0.000749946 5.6898C0.000749946 5.69055 0 5.69205 0 5.6928C0 5.69355 0.000749946 5.69505 0.000749946 5.6958C0.000749946 5.7873 0.021 5.87805 0.05475 5.9643C0.06825 5.9988 0.09 6.0258 0.108 6.0573C0.12975 6.0963 0.14475 6.13755 0.174 6.1728L3.924 10.6728C4.0725 10.8506 4.2855 10.9428 4.5 10.9428C4.6695 10.9428 4.83975 10.8858 4.98 10.7688C5.298 10.5041 5.3415 10.0308 5.076 9.7128L2.35125 6.4428H11.25C11.664 6.4428 12 6.1068 12 5.6928C12 5.2788 11.664 4.9428 11.25 4.9428Z" fill="#016937"/>
</svg>
