<svg width="32" height="33" viewBox="0 0 32 33" fill="none" xmlns="http://www.w3.org/2000/svg">
<path fill-rule="evenodd" clip-rule="evenodd" d="M5.33398 16.943C5.33398 16.2067 5.93094 15.6097 6.66732 15.6097H25.334C26.0704 15.6097 26.6673 16.2067 26.6673 16.943C26.6673 17.6794 26.0704 18.2764 25.334 18.2764H6.66732C5.93094 18.2764 5.33398 17.6794 5.33398 16.943Z" fill="#00280F"/>
<path fill-rule="evenodd" clip-rule="evenodd" d="M15.0578 6.66689C15.5785 6.14619 16.4228 6.14619 16.9435 6.66689L26.2768 16.0002C26.7975 16.5209 26.7975 17.3651 26.2768 17.8858L16.9435 27.2192C16.4228 27.7399 15.5785 27.7399 15.0578 27.2192C14.5371 26.6985 14.5371 25.8543 15.0578 25.3336L23.4484 16.943L15.0578 8.55251C14.5371 8.03181 14.5371 7.18759 15.0578 6.66689Z" fill="#00280F"/>
</svg>
