<svg width="89" height="66" viewBox="0 0 89 66" fill="none" xmlns="http://www.w3.org/2000/svg">
<path d="M8.8806 64.5387C9.0313 64.6258 9.26419 64.6258 9.41489 64.5387C9.56559 64.4517 9.56559 64.3172 9.41489 64.2302C9.26419 64.1432 9.0313 64.1432 8.8806 64.2302C8.7299 64.3172 8.7299 64.4517 8.8806 64.5387Z" fill="#004128"/>
<path d="M11.4417 66.0655C11.6061 66.1605 11.88 66.1605 12.0444 66.0655C12.2088 65.9706 12.2088 65.8124 12.0444 65.7174C11.88 65.6225 11.6061 65.6225 11.4417 65.7174C11.2773 65.8124 11.2773 65.9706 11.4417 66.0655Z" fill="#004128"/>
<path d="M13.8669 61.6584C14.0176 61.7454 14.2505 61.7454 14.4012 61.6584C14.5519 61.5713 14.5519 61.4369 14.4012 61.3498C14.2505 61.2628 14.0176 61.2628 13.8669 61.3498C13.7162 61.4369 13.7162 61.5713 13.8669 61.6584Z" fill="#004128"/>
<path d="M16.428 63.1778C16.5924 63.2728 16.8664 63.2728 17.0308 63.1778C17.1952 63.0829 17.1952 62.9247 17.0308 62.8297C16.8664 62.7348 16.5924 62.7348 16.428 62.8297C16.2636 62.9247 16.2636 63.0829 16.428 63.1778Z" fill="#004128"/>
<path d="M18.9903 64.7045C19.1821 64.8153 19.4835 64.8153 19.6616 64.7045C19.8397 64.5938 19.8534 64.4197 19.6616 64.3169C19.4698 64.214 19.1684 64.2061 18.9903 64.3169C18.8122 64.4276 18.7985 64.6017 18.9903 64.7045Z" fill="#004128"/>
<path d="M21.5526 66.2235C21.7581 66.3422 22.1005 66.3422 22.306 66.2235C22.5115 66.1048 22.5115 65.9071 22.306 65.7884C22.1005 65.6697 21.7581 65.6697 21.5526 65.7884C21.3471 65.9071 21.3471 66.1048 21.5526 66.2235Z" fill="#004128"/>
<path d="M18.8552 58.7795C19.0059 58.8665 19.2388 58.8665 19.3895 58.7795C19.5402 58.6924 19.5402 58.5579 19.3895 58.4709C19.2388 58.3839 19.0059 58.3839 18.8552 58.4709C18.7045 58.5579 18.7045 58.6924 18.8552 58.7795Z" fill="#004128"/>
<path d="M21.4163 60.2984C21.5807 60.3934 21.8547 60.3934 22.019 60.2984C22.1834 60.2035 22.1834 60.0453 22.019 59.9503C21.8547 59.8554 21.5807 59.8554 21.4163 59.9503C21.2519 60.0453 21.2519 60.2035 21.4163 60.2984Z" fill="#004128"/>
<path d="M23.9786 61.8178C24.1704 61.9286 24.4718 61.9286 24.6499 61.8178C24.828 61.7071 24.8417 61.533 24.6499 61.4302C24.4581 61.3273 24.1567 61.3194 23.9786 61.4302C23.8005 61.5409 23.7868 61.715 23.9786 61.8178Z" fill="#004128"/>
<path d="M26.5545 63.3446C26.76 63.4633 27.1025 63.4633 27.308 63.3446C27.5135 63.2259 27.5135 63.0282 27.308 62.9095C27.1025 62.7908 26.76 62.7908 26.5545 62.9095C26.349 63.0282 26.349 63.2259 26.5545 63.3446Z" fill="#004128"/>
<path d="M29.1168 64.8635C29.3497 64.998 29.7196 64.998 29.9388 64.8635C30.158 64.729 30.1717 64.5154 29.9388 64.3888C29.7059 64.2623 29.336 64.2543 29.1168 64.3888C28.8976 64.5233 28.8839 64.7369 29.1168 64.8635Z" fill="#004128"/>
<path d="M31.6791 66.3903C31.9257 66.5327 32.323 66.5327 32.5696 66.3903C32.8162 66.2479 32.8162 66.0184 32.5696 65.876C32.323 65.7336 31.9257 65.7336 31.6791 65.876C31.4325 66.0184 31.4325 66.2479 31.6791 66.3903Z" fill="#004128"/>
<path d="M23.8552 55.8918C24.0059 55.9788 24.2388 55.9788 24.3895 55.8918C24.5402 55.8047 24.5402 55.6702 24.3895 55.5832C24.2388 55.4962 24.0059 55.4962 23.8552 55.5832C23.7045 55.6702 23.7045 55.8047 23.8552 55.8918Z" fill="#004128"/>
<path d="M26.4163 57.4185C26.5807 57.5135 26.8547 57.5135 27.0191 57.4185C27.1835 57.3236 27.1835 57.1654 27.0191 57.0705C26.8547 56.9755 26.5807 56.9755 26.4163 57.0705C26.2519 57.1654 26.2519 57.3236 26.4163 57.4185Z" fill="#004128"/>
<path d="M28.9786 58.9379C29.1704 59.0487 29.4718 59.0487 29.6499 58.9379C29.828 58.8272 29.8417 58.6531 29.6499 58.5503C29.4581 58.4474 29.1567 58.4395 28.9786 58.5503C28.8005 58.661 28.7868 58.8351 28.9786 58.9379Z" fill="#004128"/>
<path d="M31.5408 60.4564C31.7463 60.5751 32.0888 60.5751 32.2943 60.4564C32.4998 60.3377 32.4998 60.14 32.2943 60.0213C32.0888 59.9026 31.7463 59.9026 31.5408 60.0213C31.3353 60.14 31.3353 60.3377 31.5408 60.4564Z" fill="#004128"/>
<path d="M34.1032 61.9836C34.3361 62.1181 34.706 62.1181 34.9252 61.9836C35.1444 61.8491 35.1581 61.6355 34.9252 61.5089C34.6923 61.3824 34.3224 61.3745 34.1032 61.5089C33.884 61.6434 33.8703 61.857 34.1032 61.9836Z" fill="#004128"/>
<path d="M36.6635 63.5021C36.9101 63.6445 37.3074 63.6445 37.5539 63.5021C37.8005 63.3597 37.8005 63.1303 37.5539 62.9879C37.3074 62.8455 36.9101 62.8455 36.6635 62.9879C36.4169 63.1303 36.4169 63.3597 36.6635 63.5021Z" fill="#004128"/>
<path d="M39.227 65.0288C39.501 65.187 39.9257 65.187 40.1997 65.0288C40.4737 64.8706 40.4737 64.6253 40.1997 64.4671C39.9257 64.3089 39.501 64.3089 39.227 64.4671C38.953 64.6253 38.953 64.8706 39.227 65.0288Z" fill="#004128"/>
<path d="M41.788 66.5483C42.0757 66.7144 42.5415 66.7144 42.8292 66.5483C43.1169 66.3821 43.1169 66.1131 42.8292 65.947C42.5415 65.7809 42.0757 65.7809 41.788 65.947C41.5003 66.1131 41.5003 66.3821 41.788 66.5483Z" fill="#004128"/>
<path d="M28.8415 53.0119C28.9922 53.0989 29.2251 53.0989 29.3758 53.0119C29.5265 52.9249 29.5265 52.7904 29.3758 52.7033C29.2251 52.6163 28.9922 52.6163 28.8415 52.7033C28.6908 52.7904 28.6908 52.9249 28.8415 53.0119Z" fill="#004128"/>
<path d="M31.4026 54.5309C31.567 54.6258 31.841 54.6258 32.0054 54.5309C32.1698 54.4359 32.1698 54.2777 32.0054 54.1828C31.841 54.0878 31.567 54.0878 31.4026 54.1828C31.2382 54.2777 31.2382 54.4359 31.4026 54.5309Z" fill="#004128"/>
<path d="M33.9649 56.058C34.1567 56.1688 34.4581 56.1688 34.6362 56.058C34.8143 55.9473 34.828 55.7732 34.6362 55.6704C34.4444 55.5676 34.143 55.5596 33.9649 55.6704C33.7868 55.7812 33.7731 55.9552 33.9649 56.058Z" fill="#004128"/>
<path d="M36.5272 57.5765C36.7327 57.6952 37.0752 57.6952 37.2806 57.5765C37.4861 57.4579 37.4861 57.2601 37.2806 57.1414C37.0752 57.0227 36.7327 57.0227 36.5272 57.1414C36.3217 57.2601 36.3217 57.4579 36.5272 57.5765Z" fill="#004128"/>
<path d="M39.0895 59.1037C39.3224 59.2382 39.6923 59.2382 39.9115 59.1037C40.1307 58.9692 40.1444 58.7556 39.9115 58.6291C39.6786 58.5025 39.3087 58.4946 39.0895 58.6291C38.8703 58.7635 38.8566 58.9771 39.0895 59.1037Z" fill="#004128"/>
<path d="M41.6517 60.6227C41.8983 60.7651 42.2956 60.7651 42.5422 60.6227C42.7888 60.4803 42.7888 60.2509 42.5422 60.1085C42.2956 59.9661 41.8983 59.9661 41.6517 60.1085C41.4051 60.2509 41.4051 60.4803 41.6517 60.6227Z" fill="#004128"/>
<path d="M44.227 62.1416C44.501 62.2998 44.9257 62.2998 45.1997 62.1416C45.4737 61.9834 45.4737 61.7381 45.1997 61.5799C44.9257 61.4217 44.501 61.4217 44.227 61.5799C43.953 61.7381 43.953 61.9834 44.227 62.1416Z" fill="#004128"/>
<path d="M46.788 63.6684C47.0757 63.8345 47.5415 63.8345 47.8292 63.6684C48.1169 63.5022 48.1169 63.2333 47.8292 63.0671C47.5415 62.901 47.0757 62.901 46.788 63.0671C46.5003 63.2333 46.5003 63.5022 46.788 63.6684Z" fill="#004128"/>
<path d="M49.3504 65.1873C49.6654 65.3692 50.1586 65.3613 50.46 65.1873C50.7614 65.0132 50.7751 64.7205 50.46 64.5465C50.1449 64.3724 49.6517 64.3645 49.3504 64.5465C49.049 64.7284 49.0353 65.0132 49.3504 65.1873Z" fill="#004128"/>
<path d="M51.9126 66.7145C52.2414 66.9044 52.7757 66.9044 53.1045 66.7145C53.4333 66.5247 53.4333 66.2161 53.1045 66.0263C52.7757 65.8364 52.2414 65.8364 51.9126 66.0263C51.5838 66.2161 51.5838 66.5247 51.9126 66.7145Z" fill="#004128"/>
<path d="M33.8415 50.1242C33.9922 50.2112 34.2251 50.2112 34.3758 50.1242C34.5265 50.0372 34.5265 49.9027 34.3758 49.8157C34.2251 49.7286 33.9922 49.7286 33.8415 49.8157C33.6908 49.9027 33.6908 50.0372 33.8415 50.1242Z" fill="#004128"/>
<path d="M36.4026 51.651C36.567 51.7459 36.841 51.7459 37.0054 51.651C37.1698 51.556 37.1698 51.3978 37.0054 51.3029C36.841 51.2079 36.567 51.2079 36.4026 51.3029C36.2382 51.3978 36.2382 51.556 36.4026 51.651Z" fill="#004128"/>
<path d="M38.9649 53.1704C39.1567 53.2811 39.4581 53.2811 39.6362 53.1704C39.8143 53.0596 39.828 52.8856 39.6362 52.7827C39.4444 52.6799 39.143 52.672 38.9649 52.7827C38.7868 52.8935 38.7731 53.0675 38.9649 53.1704Z" fill="#004128"/>
<path d="M41.5272 54.6971C41.7327 54.8158 42.0752 54.8158 42.2807 54.6971C42.4861 54.5785 42.4861 54.3807 42.2807 54.262C42.0752 54.1434 41.7327 54.1434 41.5272 54.262C41.3217 54.3807 41.3217 54.5785 41.5272 54.6971Z" fill="#004128"/>
<path d="M44.0895 56.216C44.3224 56.3505 44.6923 56.3505 44.9115 56.216C45.1307 56.0815 45.1444 55.8679 44.9115 55.7414C44.6786 55.6148 44.3087 55.6069 44.0895 55.7414C43.8703 55.8759 43.8566 56.0895 44.0895 56.216Z" fill="#004128"/>
<path d="M46.6498 57.7428C46.8964 57.8852 47.2937 57.8852 47.5403 57.7428C47.7869 57.6004 47.7869 57.371 47.5403 57.2286C47.2937 57.0862 46.8964 57.0862 46.6498 57.2286C46.4032 57.371 46.4032 57.6004 46.6498 57.7428Z" fill="#004128"/>
<path d="M49.2133 59.2612C49.4873 59.4194 49.912 59.4194 50.186 59.2612C50.46 59.103 50.46 58.8577 50.186 58.6995C49.912 58.5413 49.4873 58.5413 49.2133 58.6995C48.9393 58.8577 48.9393 59.103 49.2133 59.2612Z" fill="#004128"/>
<path d="M51.7744 60.7807C52.0621 60.9468 52.5279 60.9468 52.8155 60.7807C53.1032 60.6145 53.1032 60.3456 52.8155 60.1794C52.5279 60.0133 52.0621 60.0133 51.7744 60.1794C51.4867 60.3456 51.4867 60.6145 51.7744 60.7807Z" fill="#004128"/>
<path d="M54.3367 62.3074C54.6518 62.4893 55.145 62.4893 55.4464 62.3074C55.7477 62.1254 55.7614 61.8406 55.4464 61.6666C55.1313 61.4925 54.6381 61.4846 54.3367 61.6666C54.0353 61.8485 54.0216 62.1333 54.3367 62.3074Z" fill="#004128"/>
<path d="M56.8989 63.8263C57.2277 64.0162 57.762 64.0162 58.0908 63.8263C58.4196 63.6365 58.4196 63.3279 58.0908 63.1381C57.762 62.9482 57.2277 62.9482 56.8989 63.1381C56.5701 63.3279 56.5701 63.6365 56.8989 63.8263Z" fill="#004128"/>
<path d="M59.46 65.3531C59.8025 65.5509 60.3779 65.5509 60.7204 65.3531C61.0629 65.1554 61.0629 64.8231 60.7204 64.6253C60.3779 64.4275 59.8025 64.4275 59.46 64.6253C59.1175 64.8231 59.1175 65.1554 59.46 65.3531Z" fill="#004128"/>
<path d="M62.0216 66.872C62.3915 67.0856 62.9942 67.0856 63.3641 66.872C63.734 66.6584 63.734 66.3103 63.3641 66.0967C62.9942 65.8831 62.3915 65.8831 62.0216 66.0967C61.6517 66.3103 61.6517 66.6584 62.0216 66.8641V66.872Z" fill="#004128"/>
<path d="M38.8279 47.2453C38.9786 47.3323 39.2115 47.3323 39.3622 47.2453C39.5129 47.1583 39.5129 47.0238 39.3622 46.9367C39.2115 46.8497 38.9786 46.8497 38.8279 46.9367C38.6772 47.0238 38.6772 47.1583 38.8279 47.2453Z" fill="#004128"/>
<path d="M41.3889 48.7638C41.5533 48.8587 41.8273 48.8587 41.9917 48.7638C42.1561 48.6688 42.1561 48.5106 41.9917 48.4157C41.8273 48.3207 41.5533 48.3207 41.3889 48.4157C41.2245 48.5106 41.2245 48.6688 41.3889 48.7638Z" fill="#004128"/>
<path d="M43.9513 50.291C44.1431 50.4017 44.4444 50.4017 44.6225 50.291C44.8006 50.1802 44.8143 50.0062 44.6225 49.9033C44.4307 49.8005 44.1294 49.7926 43.9513 49.9033C43.7732 50.0141 43.7595 50.1881 43.9513 50.291Z" fill="#004128"/>
<path d="M46.5135 51.8099C46.719 51.9286 47.0615 51.9286 47.267 51.8099C47.4725 51.6913 47.4725 51.4935 47.267 51.3748C47.0615 51.2561 46.719 51.2561 46.5135 51.3748C46.308 51.4935 46.308 51.6913 46.5135 51.8099Z" fill="#004128"/>
<path d="M49.0758 53.3371C49.3087 53.4716 49.6786 53.4716 49.8978 53.3371C50.117 53.2026 50.1307 52.989 49.8978 52.8625C49.6649 52.7359 49.295 52.728 49.0758 52.8625C48.8566 52.9969 48.8429 53.2105 49.0758 53.3371Z" fill="#004128"/>
<path d="M51.6361 54.8556C51.8827 54.998 52.28 54.998 52.5266 54.8556C52.7732 54.7132 52.7732 54.4838 52.5266 54.3414C52.28 54.199 51.8827 54.199 51.6361 54.3414C51.3895 54.4838 51.3895 54.7132 51.6361 54.8556Z" fill="#004128"/>
<path d="M54.1996 56.3823C54.4736 56.5405 54.8983 56.5405 55.1723 56.3823C55.4463 56.2241 55.4463 55.9788 55.1723 55.8206C54.8983 55.6624 54.4736 55.6624 54.1996 55.8206C53.9256 55.9788 53.9256 56.2241 54.1996 56.3823Z" fill="#004128"/>
<path d="M56.7607 57.9018C57.0484 58.0679 57.5142 58.0679 57.8019 57.9018C58.0896 57.7356 58.0896 57.4667 57.8019 57.3005C57.5142 57.1344 57.0484 57.1344 56.7607 57.3005C56.473 57.4667 56.473 57.7356 56.7607 57.9018Z" fill="#004128"/>
<path d="M59.323 59.4207C59.6381 59.6026 60.1313 59.6026 60.4327 59.4207C60.7341 59.2387 60.7478 58.9539 60.4327 58.7799C60.1176 58.6058 59.6244 58.5979 59.323 58.7799C59.0216 58.9618 59.0079 59.2466 59.323 59.4207Z" fill="#004128"/>
<path d="M61.8989 60.9474C62.2277 61.1373 62.762 61.1373 63.0908 60.9474C63.4196 60.7576 63.4196 60.449 63.0908 60.2592C62.762 60.0693 62.2277 60.0693 61.8989 60.2592C61.5701 60.449 61.5701 60.7576 61.8989 60.9474Z" fill="#004128"/>
<path d="M64.46 62.4659C64.8025 62.6637 65.3779 62.6637 65.7204 62.4659C66.0629 62.2681 66.0629 61.9359 65.7204 61.7381C65.3779 61.5403 64.8025 61.5403 64.46 61.7381C64.1175 61.9359 64.1175 62.2681 64.46 62.4659Z" fill="#004128"/>
<path d="M67.0216 63.9931C67.3915 64.2067 67.9942 64.2067 68.3641 63.9931C68.734 63.7795 68.734 63.4314 68.3641 63.2178C67.9942 63.0042 67.3915 63.0042 67.0216 63.2178C66.6517 63.4314 66.6517 63.7795 67.0216 63.9852V63.9931Z" fill="#004128"/>
<path d="M69.5839 65.5116C69.9675 65.7331 70.5976 65.7331 70.9949 65.5116C71.3922 65.2901 71.3785 64.9262 70.9949 64.6968C70.6113 64.4673 69.9812 64.4752 69.5839 64.6968C69.1866 64.9183 69.2003 65.2822 69.5839 65.5116Z" fill="#004128"/>
<path d="M72.1461 67.0305C72.5571 67.2678 73.2147 67.2678 73.6257 67.0305C74.0367 66.7932 74.0367 66.4134 73.6257 66.1761C73.2147 65.9388 72.5571 65.9388 72.1461 66.1761C71.7351 66.4134 71.7351 66.7932 72.1461 67.0305Z" fill="#004128"/>
<path d="M43.8161 44.3649C43.9668 44.4519 44.1997 44.4519 44.3504 44.3649C44.5011 44.2779 44.5011 44.1434 44.3504 44.0564C44.1997 43.9693 43.9668 43.9693 43.8161 44.0564C43.6655 44.1434 43.6655 44.2779 43.8161 44.3649Z" fill="#004128"/>
<path d="M46.3772 45.8839C46.5416 45.9788 46.8156 45.9788 46.98 45.8839C47.1444 45.7889 47.1444 45.6307 46.98 45.5358C46.8156 45.4409 46.5416 45.4409 46.3772 45.5358C46.2128 45.6307 46.2128 45.7889 46.3772 45.8839Z" fill="#004128"/>
<path d="M48.9395 47.4111C49.1313 47.5218 49.4327 47.5218 49.6108 47.4111C49.7889 47.3003 49.8026 47.1263 49.6108 47.0234C49.419 46.9206 49.1176 46.9127 48.9395 47.0234C48.7614 47.1342 48.7477 47.3082 48.9395 47.4111Z" fill="#004128"/>
<path d="M51.5155 48.9296C51.7209 49.0482 52.0634 49.0482 52.2689 48.9296C52.4744 48.8109 52.4744 48.6131 52.2689 48.4944C52.0634 48.3758 51.7209 48.3758 51.5155 48.4944C51.31 48.6131 51.31 48.8109 51.5155 48.9296Z" fill="#004128"/>
<path d="M54.0778 50.4489C54.3107 50.5834 54.6806 50.5834 54.8998 50.4489C55.119 50.3144 55.1327 50.1009 54.8998 49.9743C54.6669 49.8477 54.297 49.8398 54.0778 49.9743C53.8586 50.1088 53.8449 50.3224 54.0778 50.4489Z" fill="#004128"/>
<path d="M56.64 51.9757C56.8866 52.1181 57.2839 52.1181 57.5305 51.9757C57.7771 51.8333 57.7771 51.6039 57.5305 51.4615C57.2839 51.3191 56.8866 51.3191 56.64 51.4615C56.3934 51.6039 56.3934 51.8333 56.64 51.9757Z" fill="#004128"/>
<path d="M59.2016 53.4946C59.4756 53.6528 59.9003 53.6528 60.1743 53.4946C60.4483 53.3364 60.4483 53.0911 60.1743 52.9329C59.9003 52.7747 59.4756 52.7747 59.2016 52.9329C58.9276 53.0911 58.9276 53.3364 59.2016 53.4946Z" fill="#004128"/>
<path d="M61.7626 55.0214C62.0503 55.1875 62.5161 55.1875 62.8038 55.0214C63.0915 54.8553 63.0915 54.5863 62.8038 54.4202C62.5161 54.254 62.0503 54.254 61.7626 54.4202C61.475 54.5863 61.475 54.8553 61.7626 55.0214Z" fill="#004128"/>
<path d="M64.325 56.5403C64.6401 56.7222 65.1332 56.7222 65.4346 56.5403C65.736 56.3583 65.7497 56.0735 65.4346 55.8995C65.1195 55.7254 64.6264 55.7175 64.325 55.8995C64.0236 56.0814 64.0099 56.3662 64.325 56.5403Z" fill="#004128"/>
<path d="M66.8872 58.0593C67.216 58.2491 67.7503 58.2491 68.0791 58.0593C68.4079 57.8694 68.4079 57.5609 68.0791 57.371C67.7503 57.1811 67.216 57.1811 66.8872 57.371C66.5584 57.5609 66.5584 57.8694 66.8872 58.0593Z" fill="#004128"/>
<path d="M69.4483 59.586C69.7908 59.7838 70.3662 59.7838 70.7086 59.586C71.0511 59.3883 71.0511 59.056 70.7086 58.8582C70.3662 58.6604 69.7908 58.6604 69.4483 58.8582C69.1058 59.056 69.1058 59.3883 69.4483 59.586Z" fill="#004128"/>
<path d="M72.0098 61.1049C72.3797 61.3185 72.9825 61.3185 73.3524 61.1049C73.7223 60.8913 73.7223 60.5432 73.3524 60.3296C72.9825 60.116 72.3797 60.116 72.0098 60.3296C71.6399 60.5432 71.6399 60.8913 72.0098 61.097V61.1049Z" fill="#004128"/>
<path d="M74.5722 62.6317C74.9557 62.8532 75.5859 62.8532 75.9832 62.6317C76.3805 62.4102 76.3668 62.0463 75.9832 61.8169C75.5996 61.5874 74.9694 61.5954 74.5722 61.8169C74.1749 62.0384 74.1886 62.4023 74.5722 62.6317Z" fill="#004128"/>
<path d="M77.1344 64.1506C77.5454 64.3879 78.203 64.3879 78.614 64.1506C79.025 63.9133 79.025 63.5335 78.614 63.2962C78.203 63.0589 77.5454 63.0589 77.1344 63.2962C76.7234 63.5335 76.7234 63.9133 77.1344 64.1506Z" fill="#004128"/>
<path d="M79.6967 65.6696C80.1214 65.9148 80.8201 65.9148 81.2585 65.6696C81.6969 65.4243 81.6832 65.0209 81.2585 64.7677C80.8338 64.5146 80.1351 64.5225 79.6967 64.7677C79.2583 65.013 79.272 65.4164 79.6967 65.6696Z" fill="#004128"/>
<path d="M82.257 67.1963C82.7091 67.4574 83.4352 67.4574 83.8873 67.1963C84.3394 66.9352 84.3394 66.5159 83.8873 66.2549C83.4352 65.9938 82.7091 65.9938 82.257 66.2549C81.8049 66.5159 81.8049 66.9352 82.257 67.1963Z" fill="#004128"/>
<path d="M48.8161 41.4782C48.9668 41.5652 49.1997 41.5652 49.3504 41.4782C49.5011 41.3912 49.5011 41.2567 49.3504 41.1697C49.1997 41.0826 48.9668 41.0826 48.8161 41.1697C48.6655 41.2567 48.6655 41.3912 48.8161 41.4782Z" fill="#004128"/>
<path d="M51.3772 43.005C51.5416 43.0999 51.8156 43.0999 51.98 43.005C52.1444 42.91 52.1444 42.7518 51.98 42.6569C51.8156 42.562 51.5416 42.562 51.3772 42.6569C51.2128 42.7518 51.2128 42.91 51.3772 43.005Z" fill="#004128"/>
<path d="M53.9395 44.5239C54.1313 44.6346 54.4327 44.6346 54.6108 44.5239C54.7889 44.4131 54.8026 44.2391 54.6108 44.1362C54.419 44.0334 54.1176 44.0255 53.9395 44.1362C53.7614 44.247 53.7477 44.421 53.9395 44.5239Z" fill="#004128"/>
<path d="M56.5018 46.0506C56.7073 46.1693 57.0498 46.1693 57.2553 46.0506C57.4608 45.932 57.4608 45.7342 57.2553 45.6155C57.0498 45.4969 56.7073 45.4969 56.5018 45.6155C56.2963 45.7342 56.2963 45.932 56.5018 46.0506Z" fill="#004128"/>
<path d="M59.0641 47.5695C59.297 47.704 59.6669 47.704 59.8861 47.5695C60.1053 47.4351 60.119 47.2215 59.8861 47.0949C59.6532 46.9683 59.2833 46.9604 59.0641 47.0949C58.8449 47.2294 58.8312 47.443 59.0641 47.5695Z" fill="#004128"/>
<path d="M61.6264 49.0885C61.8729 49.2309 62.2702 49.2309 62.5168 49.0885C62.7634 48.9461 62.7634 48.7167 62.5168 48.5743C62.2702 48.4319 61.8729 48.4319 61.6264 48.5743C61.3798 48.7167 61.3798 48.9461 61.6264 49.0885Z" fill="#004128"/>
<path d="M64.1879 50.6152C64.4619 50.7734 64.8866 50.7734 65.1606 50.6152C65.4346 50.457 65.4346 50.2118 65.1606 50.0535C64.8866 49.8953 64.4619 49.8953 64.1879 50.0535C63.9139 50.2118 63.9139 50.457 64.1879 50.6152Z" fill="#004128"/>
<path d="M66.749 52.1342C67.0367 52.3003 67.5025 52.3003 67.7902 52.1342C68.0778 51.9681 68.0778 51.6991 67.7902 51.5329C67.5025 51.3668 67.0367 51.3668 66.749 51.5329C66.4613 51.6991 66.4613 51.9681 66.749 52.1342Z" fill="#004128"/>
<path d="M69.3113 53.6609C69.6264 53.8429 70.1196 53.8429 70.421 53.6609C70.7224 53.4789 70.7361 53.1941 70.421 53.0201C70.1059 52.846 69.6127 52.8381 69.3113 53.0201C69.0099 53.202 68.9962 53.4869 69.3113 53.6609Z" fill="#004128"/>
<path d="M71.8735 55.1804C72.2023 55.3702 72.7366 55.3702 73.0654 55.1804C73.3942 54.9905 73.3942 54.6819 73.0654 54.4921C72.7366 54.3022 72.2023 54.3022 71.8735 54.4921C71.5448 54.6819 71.5448 54.9905 71.8735 55.1804Z" fill="#004128"/>
<path d="M74.4346 56.6988C74.7771 56.8966 75.3525 56.8966 75.695 56.6988C76.0375 56.5011 76.0375 56.1688 75.695 55.971C75.3525 55.7732 74.7771 55.7732 74.4346 55.971C74.0921 56.1688 74.0921 56.5011 74.4346 56.6988Z" fill="#004128"/>
<path d="M77.0098 58.226C77.3797 58.4396 77.9825 58.4396 78.3524 58.226C78.7223 58.0124 78.7223 57.6643 78.3524 57.4507C77.9825 57.2371 77.3797 57.2371 77.0098 57.4507C76.6399 57.6643 76.6399 58.0124 77.0098 58.2181V58.226Z" fill="#004128"/>
<path d="M79.5722 59.7445C79.9557 59.966 80.5859 59.966 80.9832 59.7445C81.3805 59.523 81.3668 59.1591 80.9832 58.9297C80.5996 58.7003 79.9694 58.7082 79.5722 58.9297C79.1749 59.1512 79.1886 59.5151 79.5722 59.7445Z" fill="#004128"/>
<path d="M82.1344 61.2717C82.5454 61.509 83.203 61.509 83.614 61.2717C84.025 61.0344 84.025 60.6546 83.614 60.4173C83.203 60.18 82.5454 60.18 82.1344 60.4173C81.7234 60.6546 81.7234 61.0344 82.1344 61.2717Z" fill="#004128"/>
<path d="M84.6967 62.7907C85.1214 63.0359 85.8201 63.0359 86.2585 62.7907C86.6969 62.5454 86.6832 62.142 86.2585 61.8888C85.8338 61.6357 85.1351 61.6436 84.6967 61.8888C84.2583 62.1341 84.272 62.5375 84.6967 62.7907Z" fill="#004128"/>
<path d="M87.257 64.3096C87.7091 64.5706 88.4352 64.5706 88.8873 64.3096C89.3394 64.0485 89.3394 63.6292 88.8873 63.3681C88.4352 63.1071 87.7091 63.1071 87.257 63.3681C86.8049 63.6292 86.8049 64.0485 87.257 64.3096Z" fill="#004128"/>
<path d="M53.8025 38.5983C53.9532 38.6853 54.1861 38.6853 54.3368 38.5983C54.4875 38.5113 54.4875 38.3768 54.3368 38.2898C54.1861 38.2027 53.9532 38.2027 53.8025 38.2898C53.6518 38.3768 53.6518 38.5113 53.8025 38.5983Z" fill="#004128"/>
<path d="M56.3635 40.1173C56.5279 40.2122 56.8019 40.2122 56.9663 40.1173C57.1307 40.0223 57.1307 39.8641 56.9663 39.7692C56.8019 39.6742 56.5279 39.6742 56.3635 39.7692C56.1991 39.8641 56.1991 40.0223 56.3635 40.1173Z" fill="#004128"/>
<path d="M58.9259 41.644C59.1177 41.7547 59.4191 41.7547 59.5971 41.644C59.7752 41.5332 59.7889 41.3592 59.5971 41.2563C59.4054 41.1535 59.104 41.1456 58.9259 41.2563C58.7478 41.3671 58.7341 41.5411 58.9259 41.644Z" fill="#004128"/>
<path d="M61.4881 43.163C61.6936 43.2816 62.0361 43.2816 62.2416 43.163C62.4471 43.0443 62.4471 42.8465 62.2416 42.7278C62.0361 42.6092 61.6936 42.6092 61.4881 42.7278C61.2826 42.8465 61.2826 43.0443 61.4881 43.163Z" fill="#004128"/>
<path d="M64.0504 44.6901C64.2833 44.8246 64.6532 44.8246 64.8724 44.6901C65.0916 44.5557 65.1053 44.3421 64.8724 44.2155C64.6395 44.0889 64.2696 44.081 64.0504 44.2155C63.8312 44.35 63.8175 44.5636 64.0504 44.6901Z" fill="#004128"/>
<path d="M66.6107 46.2091C66.8573 46.3515 67.2546 46.3515 67.5012 46.2091C67.7478 46.0667 67.7478 45.8373 67.5012 45.6949C67.2546 45.5525 66.8573 45.5525 66.6107 45.6949C66.3641 45.8373 66.3641 46.0667 66.6107 46.2091Z" fill="#004128"/>
<path d="M69.1879 47.728C69.4619 47.8862 69.8866 47.8862 70.1606 47.728C70.4346 47.5698 70.4346 47.3245 70.1606 47.1663C69.8866 47.0081 69.4619 47.0081 69.1879 47.1663C68.9139 47.3245 68.9139 47.5698 69.1879 47.728Z" fill="#004128"/>
<path d="M71.749 49.2548C72.0367 49.4209 72.5025 49.4209 72.7902 49.2548C73.0779 49.0887 73.0779 48.8197 72.7902 48.6536C72.5025 48.4874 72.0367 48.4874 71.749 48.6536C71.4613 48.8197 71.4613 49.0887 71.749 49.2548Z" fill="#004128"/>
<path d="M74.3113 50.7737C74.6264 50.9556 75.1196 50.9556 75.421 50.7737C75.7224 50.5917 75.7361 50.3069 75.421 50.1329C75.1059 49.9588 74.6127 49.9509 74.3113 50.1329C74.0099 50.3148 73.9962 50.5996 74.3113 50.7737Z" fill="#004128"/>
<path d="M76.8735 52.3005C77.2023 52.4903 77.7366 52.4903 78.0654 52.3005C78.3942 52.1106 78.3942 51.8021 78.0654 51.6122C77.7366 51.4223 77.2023 51.4223 76.8735 51.6122C76.5448 51.8021 76.5448 52.1106 76.8735 52.3005Z" fill="#004128"/>
<path d="M79.4346 53.8194C79.7771 54.0172 80.3525 54.0172 80.695 53.8194C81.0375 53.6217 81.0375 53.2894 80.695 53.0916C80.3525 52.8938 79.7771 52.8938 79.4346 53.0916C79.0921 53.2894 79.0921 53.6217 79.4346 53.8194Z" fill="#004128"/>
<path d="M81.9962 55.3383C82.3661 55.5519 82.9688 55.5519 83.3387 55.3383C83.7086 55.1247 83.7086 54.7766 83.3387 54.563C82.9688 54.3494 82.3661 54.3494 81.9962 54.563C81.6263 54.7766 81.6263 55.1247 81.9962 55.3304V55.3383Z" fill="#004128"/>
<path d="M84.5585 56.8651C84.9421 57.0866 85.5723 57.0866 85.9695 56.8651C86.3668 56.6436 86.3531 56.2797 85.9695 56.0503C85.586 55.8208 84.9558 55.8288 84.5585 56.0503C84.1612 56.2718 84.1749 56.6357 84.5585 56.8651Z" fill="#004128"/>
<path d="M87.1207 58.384C87.5317 58.6213 88.1893 58.6213 88.6003 58.384C89.0113 58.1467 89.0113 57.7669 88.6003 57.5296C88.1893 57.2923 87.5317 57.2923 87.1207 57.5296C86.7098 57.7669 86.7098 58.1467 87.1207 58.384Z" fill="#004128"/>
<path d="M58.7888 35.7111C58.9395 35.7981 59.1724 35.7981 59.3231 35.7111C59.4738 35.6241 59.4738 35.4896 59.3231 35.4026C59.1724 35.3155 58.9395 35.3155 58.7888 35.4026C58.6381 35.4896 58.6381 35.6241 58.7888 35.7111Z" fill="#004128"/>
<path d="M61.3635 37.2379C61.5279 37.3328 61.8019 37.3328 61.9663 37.2379C62.1307 37.1429 62.1307 36.9847 61.9663 36.8898C61.8019 36.7949 61.5279 36.7949 61.3635 36.8898C61.1991 36.9847 61.1991 37.1429 61.3635 37.2379Z" fill="#004128"/>
<path d="M63.9259 38.7568C64.1177 38.8675 64.4191 38.8675 64.5972 38.7568C64.7752 38.646 64.7889 38.472 64.5972 38.3691C64.4054 38.2663 64.104 38.2584 63.9259 38.3691C63.7478 38.4799 63.7341 38.6539 63.9259 38.7568Z" fill="#004128"/>
<path d="M66.4881 40.2836C66.6936 40.4022 67.0361 40.4022 67.2416 40.2836C67.4471 40.1649 67.4471 39.9671 67.2416 39.8484C67.0361 39.7298 66.6936 39.7298 66.4881 39.8484C66.2826 39.9671 66.2826 40.1649 66.4881 40.2836Z" fill="#004128"/>
<path d="M69.0504 41.8025C69.2833 41.9369 69.6532 41.9369 69.8724 41.8025C70.0916 41.668 70.1053 41.4544 69.8724 41.3278C69.6395 41.2012 69.2696 41.1933 69.0504 41.3278C68.8312 41.4623 68.8175 41.6759 69.0504 41.8025Z" fill="#004128"/>
<path d="M71.6127 43.3297C71.8593 43.4721 72.2566 43.4721 72.5032 43.3297C72.7498 43.1873 72.7498 42.9579 72.5032 42.8155C72.2566 42.6731 71.8593 42.6731 71.6127 42.8155C71.3661 42.9579 71.3661 43.1873 71.6127 43.3297Z" fill="#004128"/>
<path d="M74.1742 44.8476C74.4482 45.0059 74.8729 45.0059 75.1469 44.8476C75.4209 44.6894 75.4209 44.4442 75.1469 44.286C74.8729 44.1277 74.4482 44.1277 74.1742 44.286C73.9003 44.4442 73.9003 44.6894 74.1742 44.8476Z" fill="#004128"/>
<path d="M76.7353 46.3671C77.023 46.5332 77.4888 46.5332 77.7765 46.3671C78.0642 46.201 78.0642 45.932 77.7765 45.7659C77.4888 45.5997 77.023 45.5997 76.7353 45.7659C76.4476 45.932 76.4476 46.201 76.7353 46.3671Z" fill="#004128"/>
<path d="M79.2976 47.8938C79.6127 48.0758 80.1059 48.0758 80.4073 47.8938C80.7087 47.7119 80.7224 47.427 80.4073 47.253C80.0922 47.079 79.599 47.071 79.2976 47.253C78.9962 47.435 78.9825 47.7198 79.2976 47.8938Z" fill="#004128"/>
<path d="M81.8599 49.4128C82.1887 49.6026 82.723 49.6026 83.0518 49.4128C83.3805 49.2229 83.3805 48.9144 83.0518 48.7245C82.723 48.5346 82.1887 48.5346 81.8599 48.7245C81.5311 48.9144 81.5311 49.2229 81.8599 49.4128Z" fill="#004128"/>
<path d="M84.4209 50.94C84.7634 51.1378 85.3388 51.1378 85.6813 50.94C86.0238 50.7423 86.0238 50.41 85.6813 50.2122C85.3388 50.0144 84.7634 50.0144 84.4209 50.2122C84.0784 50.41 84.0784 50.7423 84.4209 50.94Z" fill="#004128"/>
<path d="M86.9825 52.4589C87.3524 52.6725 87.9552 52.6725 88.3251 52.4589C88.695 52.2453 88.695 51.8973 88.3251 51.6837C87.9552 51.4701 87.3524 51.4701 86.9825 51.6837C86.6126 51.8973 86.6126 52.2453 86.9825 52.451V52.4589Z" fill="#004128"/>
<path d="M63.7888 32.8302C63.9395 32.9173 64.1724 32.9173 64.3231 32.8302C64.4738 32.7432 64.4738 32.6087 64.3231 32.5217C64.1724 32.4347 63.9395 32.4347 63.7888 32.5217C63.6381 32.6087 63.6381 32.7432 63.7888 32.8302Z" fill="#004128"/>
<path d="M66.3499 34.3575C66.5143 34.4524 66.7883 34.4524 66.9527 34.3575C67.117 34.2626 67.117 34.1044 66.9527 34.0094C66.7883 33.9145 66.5143 33.9145 66.3499 34.0094C66.1855 34.1044 66.1855 34.2626 66.3499 34.3575Z" fill="#004128"/>
<path d="M68.9122 35.8764C69.104 35.9872 69.4054 35.9872 69.5835 35.8764C69.7616 35.7656 69.7753 35.5916 69.5835 35.4888C69.3917 35.3859 69.0903 35.378 68.9122 35.4888C68.7341 35.5995 68.7204 35.7736 68.9122 35.8764Z" fill="#004128"/>
<path d="M71.4744 37.3949C71.6799 37.5136 72.0224 37.5136 72.2279 37.3949C72.4334 37.2762 72.4334 37.0784 72.2279 36.9598C72.0224 36.8411 71.6799 36.8411 71.4744 36.9598C71.2689 37.0784 71.2689 37.2762 71.4744 37.3949Z" fill="#004128"/>
<path d="M74.0368 38.9221C74.2697 39.0566 74.6395 39.0566 74.8587 38.9221C75.0779 38.7876 75.0916 38.574 74.8587 38.4474C74.6258 38.3208 74.256 38.3129 74.0368 38.4474C73.8176 38.5819 73.8039 38.7955 74.0368 38.9221Z" fill="#004128"/>
<path d="M76.5971 40.4411C76.8437 40.5835 77.2409 40.5835 77.4875 40.4411C77.7341 40.2987 77.7341 40.0692 77.4875 39.9268C77.2409 39.7844 76.8437 39.7844 76.5971 39.9268C76.3505 40.0692 76.3505 40.2987 76.5971 40.4411Z" fill="#004128"/>
<path d="M79.1606 41.9678C79.4346 42.126 79.8593 42.126 80.1333 41.9678C80.4073 41.8095 80.4073 41.5643 80.1333 41.4061C79.8593 41.2478 79.4346 41.2478 79.1606 41.4061C78.8866 41.5643 78.8866 41.8095 79.1606 41.9678Z" fill="#004128"/>
<path d="M81.7216 43.4867C82.0093 43.6529 82.4751 43.6529 82.7628 43.4867C83.0505 43.3206 83.0505 43.0516 82.7628 42.8855C82.4751 42.7193 82.0093 42.7193 81.7216 42.8855C81.4339 43.0516 81.4339 43.3206 81.7216 43.4867Z" fill="#004128"/>
<path d="M84.2839 45.0061C84.599 45.1881 85.0922 45.1881 85.3936 45.0061C85.695 44.8242 85.7087 44.5394 85.3936 44.3653C85.0785 44.1913 84.5853 44.1834 84.2839 44.3653C83.9826 44.5473 83.9689 44.8321 84.2839 45.0061Z" fill="#004128"/>
<path d="M86.8599 46.5329C87.1887 46.7228 87.723 46.7228 88.0517 46.5329C88.3805 46.343 88.3805 46.0345 88.0517 45.8446C87.723 45.6548 87.1887 45.6548 86.8599 45.8446C86.5311 46.0345 86.5311 46.343 86.8599 46.5329Z" fill="#004128"/>
<path d="M68.7771 29.9508C68.9278 30.0379 69.1607 30.0379 69.3114 29.9508C69.4621 29.8638 69.4621 29.7293 69.3114 29.6423C69.1607 29.5553 68.9278 29.5553 68.7771 29.6423C68.6264 29.7293 68.6264 29.8638 68.7771 29.9508Z" fill="#004128"/>
<path d="M71.3381 31.4693C71.5025 31.5643 71.7765 31.5643 71.9409 31.4693C72.1053 31.3744 72.1053 31.2162 71.9409 31.1212C71.7765 31.0263 71.5025 31.0263 71.3381 31.1212C71.1737 31.2162 71.1737 31.3744 71.3381 31.4693Z" fill="#004128"/>
<path d="M73.9005 32.9965C74.0923 33.1073 74.3937 33.1073 74.5718 32.9965C74.7498 32.8858 74.7635 32.7117 74.5718 32.6089C74.38 32.506 74.0786 32.4981 73.9005 32.6089C73.7224 32.7196 73.7087 32.8937 73.9005 32.9965Z" fill="#004128"/>
<path d="M76.4627 34.5155C76.6682 34.6342 77.0107 34.6342 77.2162 34.5155C77.4217 34.3968 77.4217 34.1991 77.2162 34.0804C77.0107 33.9617 76.6682 33.9617 76.4627 34.0804C76.2572 34.1991 76.2572 34.3968 76.4627 34.5155Z" fill="#004128"/>
<path d="M79.0387 36.0344C79.2716 36.1689 79.6415 36.1689 79.8607 36.0344C80.0799 35.8999 80.0936 35.6863 79.8607 35.5597C79.6278 35.4331 79.2579 35.4252 79.0387 35.5597C78.8195 35.6942 78.8058 35.9078 79.0387 36.0344Z" fill="#004128"/>
<path d="M81.601 37.5612C81.8476 37.7036 82.2449 37.7036 82.4915 37.5612C82.738 37.4188 82.738 37.1894 82.4915 37.047C82.2449 36.9046 81.8476 36.9046 81.601 37.047C81.3544 37.1894 81.3544 37.4188 81.601 37.5612Z" fill="#004128"/>
<path d="M84.1625 39.0806C84.4365 39.2388 84.8612 39.2388 85.1352 39.0806C85.4092 38.9223 85.4092 38.6771 85.1352 38.5189C84.8612 38.3606 84.4365 38.3606 84.1625 38.5189C83.8885 38.6771 83.8885 38.9223 84.1625 39.0806Z" fill="#004128"/>
<path d="M86.7236 40.6073C87.0113 40.7735 87.4771 40.7735 87.7648 40.6073C88.0524 40.4412 88.0524 40.1722 87.7648 40.0061C87.4771 39.84 87.0113 39.84 86.7236 40.0061C86.4359 40.1722 86.4359 40.4412 86.7236 40.6073Z" fill="#004128"/>
<path d="M89.2859 42.1262C89.601 42.3082 90.0942 42.3003 90.3956 42.1262C90.697 41.9522 90.7107 41.6595 90.3956 41.4854C90.0805 41.3114 89.5873 41.3114 89.2859 41.4854C88.9845 41.6595 88.9708 41.9522 89.2859 42.1262Z" fill="#004128"/>
<path d="M73.7771 27.0636C73.9278 27.1507 74.1607 27.1507 74.3114 27.0636C74.4621 26.9766 74.4621 26.8421 74.3114 26.7551C74.1607 26.6681 73.9278 26.6681 73.7771 26.7551C73.6264 26.8421 73.6264 26.9766 73.7771 27.0636Z" fill="#004128"/>
<path d="M76.3381 28.5904C76.5025 28.6854 76.7765 28.6854 76.9409 28.5904C77.1053 28.4955 77.1053 28.3373 76.9409 28.2423C76.7765 28.1474 76.5025 28.1474 76.3381 28.2423C76.1737 28.3373 76.1737 28.4955 76.3381 28.5904Z" fill="#004128"/>
<path d="M78.9005 30.1093C79.0923 30.2201 79.3937 30.2201 79.5718 30.1093C79.7499 29.9986 79.7636 29.8245 79.5718 29.7217C79.38 29.6188 79.0786 29.6109 78.9005 29.7217C78.7224 29.8324 78.7087 30.0065 78.9005 30.1093Z" fill="#004128"/>
<path d="M81.4627 31.6366C81.6682 31.7553 82.0107 31.7553 82.2162 31.6366C82.4217 31.5179 82.4217 31.3201 82.2162 31.2015C82.0107 31.0828 81.6682 31.0828 81.4627 31.2015C81.2572 31.3201 81.2572 31.5179 81.4627 31.6366Z" fill="#004128"/>
<path d="M84.025 33.1555C84.2579 33.29 84.6278 33.29 84.847 33.1555C85.0662 33.021 85.0799 32.8074 84.847 32.6808C84.6141 32.5542 84.2442 32.5463 84.025 32.6808C83.8058 32.8153 83.7921 33.0289 84.025 33.1555Z" fill="#004128"/>
<path d="M86.5853 34.674C86.8319 34.8164 87.2292 34.8164 87.4758 34.674C87.7224 34.5316 87.7224 34.3021 87.4758 34.1597C87.2292 34.0173 86.8319 34.0173 86.5853 34.1597C86.3387 34.3021 86.3387 34.5316 86.5853 34.674Z" fill="#004128"/>
<path d="M89.1489 36.2007C89.4228 36.3589 89.8475 36.3589 90.1215 36.2007C90.3955 36.0424 90.3955 35.7972 90.1215 35.639C89.8475 35.4808 89.4228 35.4808 89.1489 35.639C88.8749 35.7972 88.8749 36.0424 89.1489 36.2007Z" fill="#004128"/>
<path d="M78.7634 24.1838C78.9141 24.2708 79.147 24.2708 79.2977 24.1838C79.4484 24.0967 79.4484 23.9622 79.2977 23.8752C79.147 23.7882 78.9141 23.7882 78.7634 23.8752C78.6127 23.9622 78.6127 24.0967 78.7634 24.1838Z" fill="#004128"/>
<path d="M81.3245 25.7027C81.4889 25.7977 81.7629 25.7977 81.9273 25.7027C82.0917 25.6078 82.0917 25.4496 81.9273 25.3546C81.7629 25.2597 81.4889 25.2597 81.3245 25.3546C81.1601 25.4496 81.1601 25.6078 81.3245 25.7027Z" fill="#004128"/>
<path d="M83.8868 27.2299C84.0786 27.3407 84.38 27.3407 84.5581 27.2299C84.7362 27.1192 84.7499 26.9451 84.5581 26.8423C84.3663 26.7394 84.0649 26.7315 83.8868 26.8423C83.7087 26.953 83.695 27.1271 83.8868 27.2299Z" fill="#004128"/>
<path d="M86.449 28.7484C86.6545 28.8671 86.997 28.8671 87.2025 28.7484C87.408 28.6297 87.408 28.432 87.2025 28.3133C86.997 28.1946 86.6545 28.1946 86.449 28.3133C86.2435 28.432 86.2435 28.6297 86.449 28.7484Z" fill="#004128"/>
<path d="M89.0114 30.2756C89.2443 30.4101 89.6142 30.4101 89.8334 30.2756C90.0526 30.1411 90.0663 29.9275 89.8334 29.8009C89.6005 29.6744 89.2306 29.6664 89.0114 29.8009C88.7922 29.9354 88.7785 30.149 89.0114 30.2756Z" fill="#004128"/>
<path d="M83.7497 21.3039C83.9004 21.3909 84.1333 21.3909 84.284 21.3039C84.4347 21.2169 84.4347 21.0824 84.284 20.9953C84.1333 20.9083 83.9004 20.9083 83.7497 20.9953C83.599 21.0824 83.599 21.2169 83.7497 21.3039Z" fill="#004128"/>
<path d="M86.3245 22.8228C86.4889 22.9178 86.7628 22.9178 86.9272 22.8228C87.0916 22.7279 87.0916 22.5697 86.9272 22.4748C86.7628 22.3798 86.4889 22.3798 86.3245 22.4748C86.1601 22.5697 86.1601 22.7279 86.3245 22.8228Z" fill="#004128"/>
<path d="M88.8868 24.3417C89.0786 24.4525 89.38 24.4525 89.5581 24.3417C89.7362 24.231 89.7499 24.0569 89.5581 23.9541C89.3663 23.8512 89.0649 23.8433 88.8868 23.9541C88.7087 24.0648 88.695 24.2389 88.8868 24.3417Z" fill="#004128"/>
<path d="M88.7497 18.4167C88.9004 18.5037 89.1333 18.5037 89.284 18.4167C89.4347 18.3296 89.4347 18.1952 89.284 18.1081C89.1333 18.0211 88.9004 18.0211 88.7497 18.1081C88.599 18.1952 88.599 18.3296 88.7497 18.4167Z" fill="#004128"/>
<path d="M12.9364 63.6442C12.7857 63.7312 12.5528 63.7312 12.4021 63.6442C12.2514 63.5572 12.2514 63.4227 12.4021 63.3357C12.5528 63.2487 12.7857 63.2487 12.9364 63.3357C13.0871 63.4227 13.0871 63.5572 12.9364 63.6442Z" fill="#004128"/>
<path d="M15.5796 65.1632C15.4152 65.2581 15.1412 65.2581 14.9768 65.1632C14.8124 65.0682 14.8124 64.91 14.9768 64.8151C15.1412 64.7202 15.4152 64.7202 15.5796 64.8151C15.744 64.91 15.744 65.0682 15.5796 65.1632Z" fill="#004128"/>
<path d="M17.9364 60.757C17.7857 60.844 17.5528 60.844 17.4021 60.757C17.2514 60.67 17.2514 60.5355 17.4021 60.4485C17.5528 60.3614 17.7857 60.3614 17.9364 60.4485C18.0871 60.5355 18.0871 60.67 17.9364 60.757Z" fill="#004128"/>
<path d="M20.5679 62.2838C20.4035 62.3787 20.1295 62.3787 19.9651 62.2838C19.8007 62.1888 19.8007 62.0306 19.9651 61.9357C20.1295 61.8408 20.4035 61.8408 20.5679 61.9357C20.7323 62.0306 20.7323 62.1888 20.5679 62.2838Z" fill="#004128"/>
<path d="M23.2104 63.8027C23.0186 63.9134 22.7172 63.9134 22.5391 63.8027C22.3611 63.6919 22.3474 63.5179 22.5391 63.415C22.7309 63.3122 23.0323 63.3043 23.2104 63.415C23.3885 63.5258 23.4022 63.6998 23.2104 63.8027Z" fill="#004128"/>
<path d="M25.8412 65.3299C25.6357 65.4486 25.2932 65.4486 25.0877 65.3299C24.8822 65.2113 24.8822 65.0135 25.0877 64.8948C25.2932 64.7762 25.6357 64.7762 25.8412 64.8948C26.0467 65.0135 26.0467 65.2113 25.8412 65.3299Z" fill="#004128"/>
<path d="M22.9227 57.8771C22.772 57.9641 22.5391 57.9641 22.3884 57.8771C22.2377 57.7901 22.2377 57.6556 22.3884 57.5686C22.5391 57.4816 22.772 57.4816 22.9227 57.5686C23.0734 57.6556 23.0734 57.7901 22.9227 57.8771Z" fill="#004128"/>
<path d="M25.5679 59.3966C25.4035 59.4915 25.1295 59.4915 24.9651 59.3966C24.8007 59.3016 24.8007 59.1434 24.9651 59.0485C25.1295 58.9535 25.4035 58.9535 25.5679 59.0485C25.7323 59.1434 25.7323 59.3016 25.5679 59.3966Z" fill="#004128"/>
<path d="M28.1987 60.9233C28.0069 61.034 27.7055 61.034 27.5274 60.9233C27.3493 60.8125 27.3356 60.6385 27.5274 60.5356C27.7192 60.4328 28.0206 60.4249 28.1987 60.5356C28.3768 60.6464 28.3905 60.8204 28.1987 60.9233Z" fill="#004128"/>
<path d="M30.8275 62.4423C30.622 62.5609 30.2795 62.5609 30.074 62.4423C29.8685 62.3236 29.8685 62.1258 30.074 62.0071C30.2795 61.8885 30.622 61.8885 30.8275 62.0071C31.033 62.1258 31.033 62.3236 30.8275 62.4423Z" fill="#004128"/>
<path d="M33.472 63.969C33.2391 64.1034 32.8692 64.1034 32.65 63.969C32.4308 63.8345 32.4171 63.6209 32.65 63.4943C32.8829 63.3677 33.2528 63.3598 33.472 63.4943C33.6912 63.6288 33.7049 63.8424 33.472 63.969Z" fill="#004128"/>
<path d="M36.1028 65.4879C35.8562 65.6303 35.4589 65.6303 35.2123 65.4879C34.9657 65.3455 34.9657 65.1161 35.2123 64.9737C35.4589 64.8313 35.8562 64.8313 36.1028 64.9737C36.3494 65.1161 36.3494 65.3455 36.1028 65.4879Z" fill="#004128"/>
<path d="M27.9247 54.9982C27.774 55.0852 27.5411 55.0852 27.3904 54.9982C27.2397 54.9112 27.2397 54.7767 27.3904 54.6897C27.5411 54.6027 27.774 54.6027 27.9247 54.6897C28.0754 54.7767 28.0754 54.9112 27.9247 54.9982Z" fill="#004128"/>
<path d="M30.5542 56.5167C30.3898 56.6116 30.1158 56.6116 29.9514 56.5167C29.787 56.4218 29.787 56.2635 29.9514 56.1686C30.1158 56.0737 30.3898 56.0737 30.5542 56.1686C30.7186 56.2635 30.7186 56.4218 30.5542 56.5167Z" fill="#004128"/>
<path d="M33.185 58.0356C32.9932 58.1463 32.6919 58.1463 32.5138 58.0356C32.3357 57.9248 32.322 57.7508 32.5138 57.6479C32.7056 57.5451 33.0069 57.5372 33.185 57.6479C33.3631 57.7587 33.3768 57.9327 33.185 58.0356Z" fill="#004128"/>
<path d="M35.8295 59.5624C35.624 59.681 35.2815 59.681 35.076 59.5624C34.8705 59.4437 34.8705 59.2459 35.076 59.1273C35.2815 59.0086 35.624 59.0086 35.8295 59.1273C36.035 59.2459 36.035 59.4437 35.8295 59.5624Z" fill="#004128"/>
<path d="M38.4584 61.0813C38.2255 61.2158 37.8556 61.2158 37.6364 61.0813C37.4172 60.9468 37.4035 60.7332 37.6364 60.6066C37.8693 60.48 38.2392 60.4721 38.4584 60.6066C38.6775 60.7411 38.6912 60.9547 38.4584 61.0813Z" fill="#004128"/>
<path d="M41.1028 62.608C40.8562 62.7504 40.4589 62.7504 40.2123 62.608C39.9657 62.4656 39.9657 62.2362 40.2123 62.0938C40.4589 61.9514 40.8562 61.9514 41.1028 62.0938C41.3494 62.2362 41.3494 62.4656 41.1028 62.608Z" fill="#004128"/>
<path d="M43.7329 64.1274C43.4589 64.2856 43.0342 64.2856 42.7602 64.1274C42.4862 63.9692 42.4862 63.724 42.7602 63.5657C43.0342 63.4075 43.4589 63.4075 43.7329 63.5657C44.0069 63.724 44.0069 63.9692 43.7329 64.1274Z" fill="#004128"/>
<path d="M46.3644 65.6459C46.0767 65.812 45.6109 65.812 45.3232 65.6459C45.0355 65.4798 45.0355 65.2108 45.3232 65.0447C45.6109 64.8785 46.0767 64.8785 46.3644 65.0447C46.6521 65.2108 46.6521 65.4798 46.3644 65.6459Z" fill="#004128"/>
<path d="M32.911 52.1105C32.7603 52.1975 32.5274 52.1975 32.3767 52.1105C32.226 52.0235 32.226 51.889 32.3767 51.802C32.5274 51.715 32.7603 51.715 32.911 51.802C33.0617 51.889 33.0617 52.0235 32.911 52.1105Z" fill="#004128"/>
<path d="M35.5405 53.6373C35.3761 53.7322 35.1021 53.7322 34.9378 53.6373C34.7734 53.5424 34.7734 53.3841 34.9378 53.2892C35.1021 53.1943 35.3761 53.1943 35.5405 53.2892C35.7049 53.3841 35.7049 53.5424 35.5405 53.6373Z" fill="#004128"/>
<path d="M38.185 55.1562C37.9932 55.2669 37.6919 55.2669 37.5138 55.1562C37.3357 55.0454 37.322 54.8714 37.5138 54.7685C37.7056 54.6657 38.0069 54.6578 38.185 54.7685C38.3631 54.8793 38.3768 55.0533 38.185 55.1562Z" fill="#004128"/>
<path d="M40.8158 56.6747C40.6103 56.7933 40.2678 56.7933 40.0623 56.6747C39.8568 56.556 39.8568 56.3582 40.0623 56.2396C40.2678 56.1209 40.6103 56.1209 40.8158 56.2396C41.0213 56.3582 41.0213 56.556 40.8158 56.6747Z" fill="#004128"/>
<path d="M43.4603 58.2019C43.2274 58.3364 42.8575 58.3364 42.6383 58.2019C42.4191 58.0674 42.4054 57.8538 42.6383 57.7272C42.8712 57.6006 43.2411 57.5927 43.4603 57.7272C43.6795 57.8617 43.6932 58.0753 43.4603 58.2019Z" fill="#004128"/>
<path d="M46.0891 59.7203C45.8425 59.8627 45.4452 59.8627 45.1986 59.7203C44.952 59.5779 44.952 59.3485 45.1986 59.2061C45.4452 59.0637 45.8425 59.0637 46.0891 59.2061C46.3357 59.3485 46.3357 59.5779 46.0891 59.7203Z" fill="#004128"/>
<path d="M48.7192 61.2475C48.4452 61.4058 48.0205 61.4058 47.7465 61.2475C47.4725 61.0893 47.4725 60.8441 47.7465 60.6859C48.0205 60.5276 48.4452 60.5276 48.7192 60.6859C48.9932 60.8441 48.9932 61.0893 48.7192 61.2475Z" fill="#004128"/>
<path d="M51.3644 62.7665C51.0767 62.9326 50.6109 62.9326 50.3232 62.7665C50.0355 62.6004 50.0355 62.3314 50.3232 62.1653C50.6109 61.9991 51.0767 61.9991 51.3644 62.1653C51.6521 62.3314 51.6521 62.6004 51.3644 62.7665Z" fill="#004128"/>
<path d="M53.9952 64.2854C53.6801 64.4674 53.1869 64.4674 52.8855 64.2854C52.5841 64.1035 52.5704 63.8187 52.8855 63.6446C53.2006 63.4706 53.6938 63.4627 53.9952 63.6446C54.2966 63.8266 54.3103 64.1114 53.9952 64.2854Z" fill="#004128"/>
<path d="M56.6377 65.8122C56.3089 66.0021 55.7746 66.0021 55.4458 65.8122C55.117 65.6223 55.117 65.3138 55.4458 65.1239C55.7746 64.9341 56.3089 64.9341 56.6377 65.1239C56.9665 65.3138 56.9665 65.6223 56.6377 65.8122Z" fill="#004128"/>
<path d="M37.8973 49.2306C37.7466 49.3177 37.5137 49.3177 37.363 49.2306C37.2123 49.1436 37.2123 49.0091 37.363 48.9221C37.5137 48.8351 37.7466 48.8351 37.8973 48.9221C38.048 49.0091 38.048 49.1436 37.8973 49.2306Z" fill="#004128"/>
<path d="M40.5405 50.7491C40.3761 50.844 40.1021 50.844 39.9378 50.7491C39.7734 50.6542 39.7734 50.496 39.9378 50.401C40.1021 50.3061 40.3761 50.3061 40.5405 50.401C40.7049 50.496 40.7049 50.6542 40.5405 50.7491Z" fill="#004128"/>
<path d="M43.1714 52.2763C42.9796 52.3871 42.6782 52.3871 42.5001 52.2763C42.322 52.1656 42.3083 51.9915 42.5001 51.8887C42.6919 51.7858 42.9933 51.7779 43.1714 51.8887C43.3495 51.9994 43.3632 52.1735 43.1714 52.2763Z" fill="#004128"/>
<path d="M45.8158 53.7953C45.6103 53.9139 45.2678 53.9139 45.0623 53.7953C44.8568 53.6766 44.8568 53.4788 45.0623 53.3602C45.2678 53.2415 45.6103 53.2415 45.8158 53.3602C46.0213 53.4788 46.0213 53.6766 45.8158 53.7953Z" fill="#004128"/>
<path d="M48.4466 55.3142C48.2137 55.4487 47.8438 55.4487 47.6247 55.3142C47.4055 55.1797 47.3918 54.9661 47.6247 54.8395C47.8575 54.7129 48.2274 54.705 48.4466 54.8395C48.6658 54.974 48.6795 55.1876 48.4466 55.3142Z" fill="#004128"/>
<path d="M51.0754 56.841C50.8288 56.9834 50.4315 56.9834 50.1849 56.841C49.9384 56.6986 49.9384 56.4691 50.1849 56.3267C50.4315 56.1843 50.8288 56.1843 51.0754 56.3267C51.322 56.4691 51.322 56.6986 51.0754 56.841Z" fill="#004128"/>
<path d="M53.7211 58.3598C53.4472 58.5181 53.0225 58.5181 52.7485 58.3598C52.4745 58.2016 52.4745 57.9564 52.7485 57.7982C53.0225 57.6399 53.4472 57.6399 53.7211 57.7982C53.9951 57.9564 53.9951 58.2016 53.7211 58.3598Z" fill="#004128"/>
<path d="M56.3507 59.8871C56.063 60.0533 55.5972 60.0533 55.3095 59.8871C55.0218 59.721 55.0218 59.452 55.3095 59.2859C55.5972 59.1197 56.063 59.1197 56.3507 59.2859C56.6384 59.452 56.6384 59.721 56.3507 59.8871Z" fill="#004128"/>
<path d="M59.2278 61.0817C59.2278 60.8283 58.8721 60.6228 58.4333 60.6228C57.9944 60.6228 57.6387 60.8283 57.6387 61.0817C57.6387 61.3351 57.9944 61.5405 58.4333 61.5405C58.8721 61.5405 59.2278 61.3351 59.2278 61.0817Z" fill="#004128"/>
<path d="M61.626 62.9245C61.2972 63.1144 60.7629 63.1144 60.4341 62.9245C60.1053 62.7346 60.1053 62.4261 60.4341 62.2362C60.7629 62.0464 61.2972 62.0464 61.626 62.2362C61.9548 62.4261 61.9548 62.7346 61.626 62.9245Z" fill="#004128"/>
<path d="M64.2555 64.4513C63.913 64.6491 63.3376 64.6491 62.9952 64.4513C62.6527 64.2535 62.6527 63.9212 62.9952 63.7235C63.3376 63.5257 63.913 63.5257 64.2555 63.7235C64.598 63.9212 64.598 64.2535 64.2555 64.4513Z" fill="#004128"/>
<path d="M66.9 65.9707C66.5301 66.1843 65.9273 66.1843 65.5711 65.9707C65.2149 65.7571 65.2012 65.409 65.5711 65.2033C65.941 64.9976 66.5438 64.9897 66.9137 65.2033C67.2836 65.4169 67.2836 65.765 66.9137 65.9786L66.9 65.9707Z" fill="#004128"/>
<path d="M42.8973 46.3429C42.7466 46.43 42.5137 46.43 42.363 46.3429C42.2123 46.2559 42.2123 46.1214 42.363 46.0344C42.5137 45.9474 42.7466 45.9474 42.8973 46.0344C43.048 46.1214 43.048 46.2559 42.8973 46.3429Z" fill="#004128"/>
<path d="M45.5288 47.8702C45.3644 47.9651 45.0904 47.9651 44.926 47.8702C44.7616 47.7753 44.7616 47.6171 44.926 47.5221C45.0904 47.4272 45.3644 47.4272 45.5288 47.5221C45.6932 47.6171 45.6932 47.7753 45.5288 47.8702Z" fill="#004128"/>
<path d="M48.1714 49.3886C47.9796 49.4994 47.6782 49.4994 47.5001 49.3886C47.322 49.2779 47.3083 49.1038 47.5001 49.001C47.6919 48.8981 47.9933 48.8902 48.1714 49.001C48.3495 49.1117 48.3632 49.2858 48.1714 49.3886Z" fill="#004128"/>
<path d="M50.8021 50.9159C50.5966 51.0345 50.2541 51.0345 50.0487 50.9159C49.8432 50.7972 49.8432 50.5994 50.0487 50.4808C50.2541 50.3621 50.5966 50.3621 50.8021 50.4808C51.0076 50.5994 51.0076 50.7972 50.8021 50.9159Z" fill="#004128"/>
<path d="M53.433 52.4348C53.2001 52.5693 52.8302 52.5693 52.611 52.4348C52.3918 52.3003 52.3781 52.0867 52.611 51.9601C52.8439 51.8335 53.2138 51.8256 53.433 51.9601C53.6522 52.0946 53.6659 52.3082 53.433 52.4348Z" fill="#004128"/>
<path d="M56.0774 53.9537C55.8308 54.0961 55.4335 54.0961 55.1869 53.9537C54.9403 53.8113 54.9403 53.5819 55.1869 53.4395C55.4335 53.2971 55.8308 53.2971 56.0774 53.4395C56.324 53.5819 56.324 53.8113 56.0774 53.9537Z" fill="#004128"/>
<path d="M58.7075 55.4805C58.4335 55.6387 58.0088 55.6387 57.7348 55.4805C57.4608 55.3222 57.4608 55.077 57.7348 54.9188C58.0088 54.7605 58.4335 54.7605 58.7075 54.9188C58.9815 55.077 58.9815 55.3222 58.7075 55.4805Z" fill="#004128"/>
<path d="M61.3507 56.9994C61.063 57.1656 60.5972 57.1656 60.3095 56.9994C60.0218 56.8333 60.0218 56.5643 60.3095 56.3982C60.5972 56.232 61.063 56.232 61.3507 56.3982C61.6384 56.5643 61.6384 56.8333 61.3507 56.9994Z" fill="#004128"/>
<path d="M63.9815 58.5261C63.6664 58.7081 63.1732 58.7081 62.8718 58.5261C62.5704 58.3442 62.5567 58.0594 62.8718 57.8853C63.1869 57.7113 63.6801 57.7034 63.9815 57.8853C64.2829 58.0673 64.2966 58.3521 63.9815 58.5261Z" fill="#004128"/>
<path d="M66.6123 60.0456C66.2835 60.2355 65.7492 60.2355 65.4204 60.0456C65.0916 59.8557 65.0916 59.5472 65.4204 59.3573C65.7492 59.1674 66.2835 59.1674 66.6123 59.3573C66.9411 59.5472 66.9411 59.8557 66.6123 60.0456Z" fill="#004128"/>
<path d="M69.2555 61.5636C68.913 61.7614 68.3376 61.7614 67.9952 61.5636C67.6527 61.3658 67.6527 61.0335 67.9952 60.8358C68.3376 60.638 68.913 60.638 69.2555 60.8358C69.598 61.0335 69.598 61.3658 69.2555 61.5636Z" fill="#004128"/>
<path d="M71.8856 63.0913C71.5157 63.3049 70.9129 63.3049 70.543 63.0913C70.1732 62.8777 70.1732 62.5296 70.543 62.3239C70.9129 62.1182 71.5157 62.1103 71.8719 62.3239C72.2281 62.5375 72.2418 62.8856 71.8719 63.0992L71.8856 63.0913Z" fill="#004128"/>
<path d="M74.5301 64.6097C74.1465 64.8313 73.5163 64.8313 73.119 64.6097C72.7217 64.3882 72.7354 64.0243 73.119 63.7949C73.5026 63.5655 74.1328 63.5734 74.5301 63.7949C74.9274 64.0164 74.9137 64.3803 74.5301 64.6097Z" fill="#004128"/>
<path d="M77.1609 66.1365C76.7499 66.3738 76.0923 66.3738 75.6813 66.1365C75.2703 65.8991 75.2703 65.5194 75.6813 65.2821C76.0923 65.0447 76.7499 65.0447 77.1609 65.2821C77.5718 65.5194 77.5718 65.8991 77.1609 66.1365Z" fill="#004128"/>
<path d="M47.8836 43.4631C47.7329 43.5501 47.5 43.5501 47.3494 43.4631C47.1987 43.376 47.1987 43.2415 47.3494 43.1545C47.5 43.0675 47.7329 43.0675 47.8836 43.1545C48.0343 43.2415 48.0343 43.376 47.8836 43.4631Z" fill="#004128"/>
<path d="M50.5288 44.9825C50.3644 45.0774 50.0904 45.0774 49.926 44.9825C49.7616 44.8876 49.7616 44.7294 49.926 44.6344C50.0904 44.5395 50.3644 44.5395 50.5288 44.6344C50.6932 44.7294 50.6932 44.8876 50.5288 44.9825Z" fill="#004128"/>
<path d="M53.1577 46.5092C52.9659 46.62 52.6645 46.62 52.4864 46.5092C52.3083 46.3985 52.2946 46.2244 52.4864 46.1216C52.6782 46.0187 52.9796 46.0108 53.1577 46.1216C53.3358 46.2323 53.3495 46.4064 53.1577 46.5092Z" fill="#004128"/>
<path d="M55.7885 48.0282C55.583 48.1469 55.2405 48.1469 55.035 48.0282C54.8295 47.9095 54.8295 47.7117 55.035 47.5931C55.2405 47.4744 55.583 47.4744 55.7885 47.5931C55.994 47.7117 55.994 47.9095 55.7885 48.0282Z" fill="#004128"/>
<path d="M58.433 49.5549C58.2001 49.6894 57.8302 49.6894 57.611 49.5549C57.3918 49.4204 57.3781 49.2068 57.611 49.0802C57.8439 48.9537 58.2138 48.9457 58.433 49.0802C58.6522 49.2147 58.6659 49.4283 58.433 49.5549Z" fill="#004128"/>
<path d="M61.0637 51.0739C60.8171 51.2163 60.4198 51.2163 60.1732 51.0739C59.9266 50.9315 59.9266 50.702 60.1732 50.5596C60.4198 50.4172 60.8171 50.4172 61.0637 50.5596C61.3103 50.702 61.3103 50.9315 61.0637 51.0739Z" fill="#004128"/>
<path d="M63.7075 52.5928C63.4335 52.751 63.0088 52.751 62.7348 52.5928C62.4608 52.4345 62.4608 52.1893 62.7348 52.0311C63.0088 51.8729 63.4335 51.8729 63.7075 52.0311C63.9815 52.1893 63.9815 52.4345 63.7075 52.5928Z" fill="#004128"/>
<path d="M66.337 54.1195C66.0493 54.2857 65.5835 54.2857 65.2958 54.1195C65.0082 53.9534 65.0082 53.6844 65.2958 53.5183C65.5835 53.3522 66.0493 53.3522 66.337 53.5183C66.6247 53.6844 66.6247 53.9534 66.337 54.1195Z" fill="#004128"/>
<path d="M68.9685 55.6385C68.6672 55.8125 68.1603 55.8204 67.8589 55.6385C67.5575 55.4565 67.5575 55.1717 67.8589 54.9977C68.1603 54.8236 68.6672 54.8157 68.9685 54.9977C69.2699 55.1796 69.2836 55.4644 68.9685 55.6385Z" fill="#004128"/>
<path d="M71.6123 57.1652C71.2835 57.3551 70.7492 57.3551 70.4204 57.1652C70.0916 56.9754 70.0916 56.6668 70.4204 56.477C70.7492 56.2871 71.2835 56.2871 71.6123 56.477C71.9411 56.6668 71.9411 56.9754 71.6123 57.1652Z" fill="#004128"/>
<path d="M74.2419 58.6842C73.8994 58.882 73.324 58.882 72.9815 58.6842C72.639 58.4864 72.639 58.1541 72.9815 57.9564C73.324 57.7586 73.8994 57.7586 74.2419 57.9564C74.5843 58.1541 74.5843 58.4864 74.2419 58.6842Z" fill="#004128"/>
<path d="M76.8863 60.2031C76.5164 60.4167 75.9137 60.4167 75.5575 60.2031C75.2013 59.9895 75.1876 59.6414 75.5575 59.4357C75.9274 59.23 76.5301 59.2221 76.9 59.4357C77.2699 59.6493 77.2699 59.9974 76.9 60.211L76.8863 60.2031Z" fill="#004128"/>
<path d="M79.5164 61.7299C79.1328 61.9514 78.5026 61.9514 78.1054 61.7299C77.7081 61.5084 77.7218 61.1444 78.1054 60.915C78.4889 60.6856 79.1191 60.6935 79.5164 60.915C79.9137 61.1365 79.9 61.5004 79.5164 61.7299Z" fill="#004128"/>
<path d="M82.1472 63.2492C81.7362 63.4866 81.0786 63.4866 80.6676 63.2492C80.2566 63.0119 80.2566 62.6322 80.6676 62.3948C81.0786 62.1575 81.7362 62.1575 82.1472 62.3948C82.5582 62.6322 82.5582 63.0119 82.1472 63.2492Z" fill="#004128"/>
<path d="M84.7917 64.776C84.367 65.0213 83.6683 65.0213 83.2299 64.776C82.7915 64.5308 82.8052 64.1273 83.2299 63.8742C83.6546 63.621 84.3533 63.6289 84.7917 63.8742C85.2301 64.1194 85.2164 64.5229 84.7917 64.776Z" fill="#004128"/>
<path d="M87.4225 66.2949C86.9704 66.556 86.2443 66.556 85.7922 66.2949C85.3401 66.0339 85.3401 65.6146 85.7922 65.3535C86.2443 65.0924 86.9704 65.0924 87.4225 65.3535C87.8746 65.6146 87.8746 66.0339 87.4225 66.2949Z" fill="#004128"/>
<path d="M52.8856 40.5837C52.7349 40.6707 52.502 40.6707 52.3513 40.5837C52.2006 40.4966 52.2006 40.3621 52.3513 40.2751C52.502 40.1881 52.7349 40.1881 52.8856 40.2751C53.0363 40.3621 53.0363 40.4966 52.8856 40.5837Z" fill="#004128"/>
<path d="M55.5151 42.1026C55.3508 42.1976 55.0768 42.1976 54.9124 42.1026C54.748 42.0077 54.748 41.8495 54.9124 41.7545C55.0768 41.6596 55.3508 41.6596 55.5151 41.7545C55.6795 41.8495 55.6795 42.0077 55.5151 42.1026Z" fill="#004128"/>
<path d="M58.146 43.622C57.9542 43.7328 57.6528 43.7328 57.4747 43.622C57.2966 43.5113 57.2829 43.3372 57.4747 43.2344C57.6665 43.1315 57.9679 43.1236 58.146 43.2344C58.3241 43.3451 58.3378 43.5192 58.146 43.622Z" fill="#004128"/>
<path d="M60.7885 45.1488C60.583 45.2675 60.2405 45.2675 60.035 45.1488C59.8295 45.0301 59.8295 44.8323 60.035 44.7137C60.2405 44.595 60.583 44.595 60.7885 44.7137C60.994 44.8323 60.994 45.0301 60.7885 45.1488Z" fill="#004128"/>
<path d="M63.4193 46.6672C63.1864 46.8017 62.8165 46.8017 62.5973 46.6672C62.3781 46.5327 62.3644 46.3191 62.5973 46.1925C62.8302 46.0659 63.2001 46.058 63.4193 46.1925C63.6385 46.327 63.6522 46.5406 63.4193 46.6672Z" fill="#004128"/>
<path d="M66.0637 48.194C65.8171 48.3364 65.4198 48.3364 65.1732 48.194C64.9266 48.0516 64.9266 47.8222 65.1732 47.6798C65.4198 47.5374 65.8171 47.5374 66.0637 47.6798C66.3103 47.8222 66.3103 48.0516 66.0637 48.194Z" fill="#004128"/>
<path d="M68.6938 49.7129C68.4198 49.8711 67.9951 49.8711 67.7211 49.7129C67.4471 49.5547 67.4471 49.3094 67.7211 49.1512C67.9951 48.993 68.4198 48.993 68.6938 49.1512C68.9678 49.3094 68.9678 49.5547 68.6938 49.7129Z" fill="#004128"/>
<path d="M71.3253 51.2318C71.0376 51.398 70.5718 51.398 70.2841 51.2318C69.9964 51.0657 69.9964 50.7967 70.2841 50.6306C70.5718 50.4645 71.0376 50.4645 71.3253 50.6306C71.613 50.7967 71.613 51.0657 71.3253 51.2318Z" fill="#004128"/>
<path d="M73.9678 52.759C73.6528 52.941 73.1596 52.941 72.8582 52.759C72.5568 52.5771 72.5431 52.2923 72.8582 52.1182C73.1733 51.9442 73.6665 51.9363 73.9678 52.1182C74.2692 52.3002 74.2829 52.585 73.9678 52.759Z" fill="#004128"/>
<path d="M76.5986 54.278C76.2698 54.4679 75.7355 54.4679 75.4068 54.278C75.078 54.0881 75.078 53.7796 75.4068 53.5897C75.7355 53.3999 76.2698 53.3999 76.5986 53.5897C76.9274 53.7796 76.9274 54.0881 76.5986 54.278Z" fill="#004128"/>
<path d="M79.2438 55.8048C78.9013 56.0026 78.3259 56.0026 77.9834 55.8048C77.6409 55.607 77.6409 55.2747 77.9834 55.077C78.3259 54.8792 78.9013 54.8792 79.2438 55.077C79.5863 55.2747 79.5863 55.607 79.2438 55.8048Z" fill="#004128"/>
<path d="M81.8739 57.3237C81.504 57.5373 80.9012 57.5373 80.5313 57.3237C80.1614 57.1101 80.1614 56.762 80.5313 56.5563C80.9012 56.3506 81.504 56.3427 81.8739 56.5563C82.2438 56.7699 82.2438 57.118 81.8739 57.3316V57.3237Z" fill="#004128"/>
<path d="M84.5028 58.851C84.1192 59.0725 83.489 59.0725 83.0917 58.851C82.6944 58.6294 82.7081 58.2655 83.0917 58.0361C83.4753 57.8067 84.1055 57.8146 84.5028 58.0361C84.9 58.2576 84.8863 58.6215 84.5028 58.851Z" fill="#004128"/>
<path d="M87.1472 60.3694C86.7362 60.6067 86.0786 60.6067 85.6676 60.3694C85.2566 60.132 85.2566 59.7523 85.6676 59.515C86.0786 59.2776 86.7362 59.2776 87.1472 59.515C87.5582 59.7523 87.5582 60.132 87.1472 60.3694Z" fill="#004128"/>
<path d="M89.778 61.8883C89.3533 62.1336 88.6546 62.1336 88.2163 61.8883C87.7779 61.6431 87.7916 61.2396 88.2163 60.9865C88.6409 60.7333 89.3396 60.7412 89.778 60.9865C90.2164 61.2317 90.2027 61.6352 89.778 61.8883Z" fill="#004128"/>
<path d="M57.8719 37.6965C57.7212 37.7835 57.4883 37.7835 57.3376 37.6965C57.1869 37.6094 57.1869 37.4749 57.3376 37.3879C57.4883 37.3009 57.7212 37.3009 57.8719 37.3879C58.0226 37.4749 58.0226 37.6094 57.8719 37.6965Z" fill="#004128"/>
<path d="M60.5015 39.2232C60.3371 39.3182 60.0631 39.3182 59.8987 39.2232C59.7343 39.1283 59.7343 38.9701 59.8987 38.8751C60.0631 38.7802 60.3371 38.7802 60.5015 38.8751C60.6659 38.9701 60.6659 39.1283 60.5015 39.2232Z" fill="#004128"/>
<path d="M63.146 40.7421C62.9542 40.8529 62.6528 40.8529 62.4747 40.7421C62.2966 40.6314 62.2829 40.4573 62.4747 40.3545C62.6665 40.2516 62.9679 40.2437 63.146 40.3545C63.3241 40.4652 63.3378 40.6393 63.146 40.7421Z" fill="#004128"/>
<path d="M65.7767 42.2606C65.5713 42.3793 65.2288 42.3793 65.0233 42.2606C64.8178 42.1419 64.8178 41.9442 65.0233 41.8255C65.2288 41.7068 65.5713 41.7068 65.7767 41.8255C65.9822 41.9442 65.9822 42.1419 65.7767 42.2606Z" fill="#004128"/>
<path d="M68.4193 43.7878C68.1864 43.9223 67.8165 43.9223 67.5973 43.7878C67.3781 43.6533 67.3644 43.4397 67.5973 43.3131C67.8302 43.1866 68.2001 43.1787 68.4193 43.3131C68.6385 43.4476 68.6522 43.6612 68.4193 43.7878Z" fill="#004128"/>
<path d="M71.05 45.3063C70.8034 45.4487 70.4062 45.4487 70.1596 45.3063C69.913 45.1639 69.913 44.9345 70.1596 44.7921C70.4062 44.6497 70.8034 44.6497 71.05 44.7921C71.2966 44.9345 71.2966 45.1639 71.05 45.3063Z" fill="#004128"/>
<path d="M73.6801 46.8335C73.4061 46.9917 72.9814 46.9917 72.7074 46.8335C72.4335 46.6753 72.4335 46.43 72.7074 46.2718C72.9814 46.1136 73.4061 46.1136 73.6801 46.2718C73.9541 46.43 73.9541 46.6753 73.6801 46.8335Z" fill="#004128"/>
<path d="M76.3253 48.352C76.0376 48.5181 75.5718 48.5181 75.2841 48.352C74.9964 48.1858 74.9964 47.9169 75.2841 47.7507C75.5718 47.5846 76.0376 47.5846 76.3253 47.7507C76.613 47.9169 76.613 48.1858 76.3253 48.352Z" fill="#004128"/>
<path d="M78.9561 49.8713C78.641 50.0533 78.1478 50.0533 77.8464 49.8713C77.5451 49.6894 77.5314 49.4046 77.8464 49.2305C78.1615 49.0565 78.6547 49.0486 78.9561 49.2305C79.2575 49.4125 79.2712 49.6973 78.9561 49.8713Z" fill="#004128"/>
<path d="M81.5986 51.3981C81.2698 51.588 80.7355 51.588 80.4068 51.3981C80.078 51.2083 80.078 50.8997 80.4068 50.7099C80.7355 50.52 81.2698 50.52 81.5986 50.7099C81.9274 50.8997 81.9274 51.2083 81.5986 51.3981Z" fill="#004128"/>
<path d="M84.2301 52.9171C83.8876 53.1149 83.3123 53.1149 82.9698 52.9171C82.6273 52.7193 82.6273 52.3871 82.9698 52.1893C83.3123 51.9915 83.8876 51.9915 84.2301 52.1893C84.5726 52.3871 84.5726 52.7193 84.2301 52.9171Z" fill="#004128"/>
<path d="M86.8602 54.4438C86.4903 54.6574 85.8875 54.6574 85.5177 54.4438C85.1478 54.2302 85.1478 53.8821 85.5177 53.6764C85.8875 53.4707 86.4903 53.4628 86.8602 53.6764C87.2301 53.89 87.2301 54.2381 86.8602 54.4517V54.4438Z" fill="#004128"/>
<path d="M89.5047 55.9628C89.1211 56.1843 88.4909 56.1843 88.0936 55.9628C87.6963 55.7413 87.71 55.3773 88.0936 55.1479C88.4772 54.9185 89.1074 54.9264 89.5047 55.1479C89.902 55.3694 89.8883 55.7333 89.5047 55.9628Z" fill="#004128"/>
<path d="M62.8582 34.8166C62.7075 34.9036 62.4747 34.9036 62.324 34.8166C62.1733 34.7295 62.1733 34.5951 62.324 34.508C62.4747 34.421 62.7075 34.421 62.8582 34.508C63.0089 34.5951 63.0089 34.7295 62.8582 34.8166Z" fill="#004128"/>
<path d="M65.5015 36.3355C65.3371 36.4305 65.0631 36.4305 64.8987 36.3355C64.7343 36.2406 64.7343 36.0824 64.8987 35.9874C65.0631 35.8925 65.3371 35.8925 65.5015 35.9874C65.6659 36.0824 65.6659 36.2406 65.5015 36.3355Z" fill="#004128"/>
<path d="M68.1323 37.8622C67.9405 37.973 67.6391 37.973 67.461 37.8622C67.2829 37.7515 67.2692 37.5774 67.461 37.4746C67.6528 37.3718 67.9542 37.3638 68.1323 37.4746C68.3104 37.5854 68.3241 37.7594 68.1323 37.8622Z" fill="#004128"/>
<path d="M70.7767 39.3817C70.5713 39.5004 70.2288 39.5004 70.0233 39.3817C69.8178 39.263 69.8178 39.0653 70.0233 38.9466C70.2288 38.8279 70.5713 38.8279 70.7767 38.9466C70.9822 39.0653 70.9822 39.263 70.7767 39.3817Z" fill="#004128"/>
<path d="M73.4076 40.9001C73.1747 41.0346 72.8048 41.0346 72.5856 40.9001C72.3664 40.7656 72.3527 40.552 72.5856 40.4254C72.8185 40.2989 73.1884 40.291 73.4076 40.4254C73.6268 40.5599 73.6405 40.7735 73.4076 40.9001Z" fill="#004128"/>
<path d="M76.0364 42.4274C75.7898 42.5698 75.3925 42.5698 75.1459 42.4274C74.8993 42.285 74.8993 42.0556 75.1459 41.9132C75.3925 41.7708 75.7898 41.7708 76.0364 41.9132C76.283 42.0556 76.283 42.285 76.0364 42.4274Z" fill="#004128"/>
<path d="M78.6821 43.9458C78.4081 44.104 77.9834 44.104 77.7094 43.9458C77.4354 43.7876 77.4354 43.5423 77.7094 43.3841C77.9834 43.2259 78.4081 43.2259 78.6821 43.3841C78.9561 43.5423 78.9561 43.7876 78.6821 43.9458Z" fill="#004128"/>
<path d="M81.3116 45.4726C81.024 45.6387 80.5582 45.6387 80.2705 45.4726C79.9828 45.3064 79.9828 45.0375 80.2705 44.8713C80.5582 44.7052 81.024 44.7052 81.3116 44.8713C81.5993 45.0375 81.5993 45.3064 81.3116 45.4726Z" fill="#004128"/>
<path d="M83.9561 46.9915C83.641 47.1734 83.1478 47.1734 82.8464 46.9915C82.5451 46.8095 82.5314 46.5247 82.8464 46.3507C83.1615 46.1766 83.6547 46.1687 83.9561 46.3507C84.2575 46.5326 84.2712 46.8174 83.9561 46.9915Z" fill="#004128"/>
<path d="M86.5869 48.5109C86.2581 48.7008 85.7238 48.7008 85.395 48.5109C85.0662 48.3211 85.0662 48.0125 85.395 47.8227C85.7238 47.6328 86.2581 47.6328 86.5869 47.8227C86.9157 48.0125 86.9157 48.3211 86.5869 48.5109Z" fill="#004128"/>
<path d="M89.2165 50.0377C88.874 50.2355 88.2986 50.2355 87.9561 50.0377C87.6136 49.8399 87.6136 49.5077 87.9561 49.3099C88.2986 49.1121 88.874 49.1121 89.2165 49.3099C89.559 49.5077 89.559 49.8399 89.2165 50.0377Z" fill="#004128"/>
<path d="M67.8583 31.9289C67.7076 32.0159 67.4747 32.0159 67.324 31.9289C67.1733 31.8419 67.1733 31.7074 67.324 31.6203C67.4747 31.5333 67.7076 31.5333 67.8583 31.6203C68.0089 31.7074 68.0089 31.8419 67.8583 31.9289Z" fill="#004128"/>
<path d="M70.4898 33.4557C70.3254 33.5506 70.0514 33.5506 69.887 33.4557C69.7226 33.3607 69.7226 33.2025 69.887 33.1076C70.0514 33.0126 70.3254 33.0126 70.4898 33.1076C70.6542 33.2025 70.6542 33.3607 70.4898 33.4557Z" fill="#004128"/>
<path d="M73.1323 34.9746C72.9405 35.0853 72.6391 35.0853 72.461 34.9746C72.2829 34.8638 72.2692 34.6898 72.461 34.5869C72.6528 34.4841 72.9542 34.4762 73.1323 34.5869C73.3104 34.6977 73.3241 34.8717 73.1323 34.9746Z" fill="#004128"/>
<path d="M75.7631 36.5018C75.5576 36.6205 75.2151 36.6205 75.0096 36.5018C74.8041 36.3832 74.8041 36.1854 75.0096 36.0667C75.2151 35.948 75.5576 35.948 75.7631 36.0667C75.9686 36.1854 75.9686 36.3832 75.7631 36.5018Z" fill="#004128"/>
<path d="M78.3939 38.0202C78.161 38.1547 77.7911 38.1547 77.5719 38.0202C77.3527 37.8857 77.339 37.6721 77.5719 37.5456C77.8048 37.419 78.1747 37.4111 78.3939 37.5456C78.6131 37.68 78.6268 37.8936 78.3939 38.0202Z" fill="#004128"/>
<path d="M81.0383 39.5392C80.7917 39.6816 80.3944 39.6816 80.1478 39.5392C79.9012 39.3968 79.9012 39.1674 80.1478 39.025C80.3944 38.8826 80.7917 38.8826 81.0383 39.025C81.2849 39.1674 81.2849 39.3968 81.0383 39.5392Z" fill="#004128"/>
<path d="M83.6684 41.0664C83.3944 41.2246 82.9697 41.2246 82.6957 41.0664C82.4217 40.9082 82.4217 40.6629 82.6957 40.5047C82.9697 40.3465 83.3944 40.3465 83.6684 40.5047C83.9424 40.6629 83.9424 40.9082 83.6684 41.0664Z" fill="#004128"/>
<path d="M86.3116 42.5854C86.0239 42.7515 85.5582 42.7515 85.2705 42.5854C84.9828 42.4192 84.9828 42.1503 85.2705 41.9841C85.5582 41.818 86.0239 41.818 86.3116 41.9841C86.5993 42.1503 86.5993 42.4192 86.3116 42.5854Z" fill="#004128"/>
<path d="M88.9424 44.1121C88.6274 44.294 88.1342 44.294 87.8328 44.1121C87.5314 43.9301 87.5177 43.6453 87.8328 43.4713C88.1479 43.2972 88.641 43.2893 88.9424 43.4713C89.2438 43.6532 89.2575 43.938 88.9424 44.1121Z" fill="#004128"/>
<path d="M72.8446 29.0495C72.6939 29.1365 72.461 29.1365 72.3103 29.0495C72.1596 28.9625 72.1596 28.828 72.3103 28.7409C72.461 28.6539 72.6939 28.6539 72.8446 28.7409C72.9953 28.828 72.9953 28.9625 72.8446 29.0495Z" fill="#004128"/>
<path d="M75.4898 30.568C75.3254 30.6629 75.0514 30.6629 74.887 30.568C74.7226 30.473 74.7226 30.3148 74.887 30.2199C75.0514 30.1249 75.3254 30.1249 75.4898 30.2199C75.6542 30.3148 75.6542 30.473 75.4898 30.568Z" fill="#004128"/>
<path d="M78.1206 32.0952C77.9288 32.2059 77.6274 32.2059 77.4493 32.0952C77.2712 31.9844 77.2575 31.8104 77.4493 31.7075C77.6411 31.6047 77.9425 31.5968 78.1206 31.7075C78.2987 31.8183 78.3124 31.9923 78.1206 32.0952Z" fill="#004128"/>
<path d="M80.7494 33.6141C80.5439 33.7328 80.2014 33.7328 79.9959 33.6141C79.7904 33.4955 79.7904 33.2977 79.9959 33.179C80.2014 33.0603 80.5439 33.0603 80.7494 33.179C80.9549 33.2977 80.9549 33.4955 80.7494 33.6141Z" fill="#004128"/>
<path d="M83.3939 35.1413C83.161 35.2758 82.7911 35.2758 82.5719 35.1413C82.3527 35.0068 82.339 34.7932 82.5719 34.6667C82.8048 34.5401 83.1747 34.5322 83.3939 34.6667C83.6131 34.8011 83.6268 35.0147 83.3939 35.1413Z" fill="#004128"/>
<path d="M86.0247 36.6598C85.7781 36.8022 85.3808 36.8022 85.1342 36.6598C84.8876 36.5174 84.8876 36.288 85.1342 36.1456C85.3808 36.0032 85.7781 36.0032 86.0247 36.1456C86.2713 36.288 86.2713 36.5174 86.0247 36.6598Z" fill="#004128"/>
<path d="M88.6684 38.1787C88.3944 38.3369 87.9697 38.3369 87.6957 38.1787C87.4217 38.0205 87.4217 37.7752 87.6957 37.617C87.9697 37.4588 88.3944 37.4588 88.6684 37.617C88.9424 37.7752 88.9424 38.0205 88.6684 38.1787Z" fill="#004128"/>
<path d="M77.8465 26.1696C77.6958 26.2566 77.4629 26.2566 77.3122 26.1696C77.1615 26.0826 77.1615 25.9481 77.3122 25.8611C77.4629 25.774 77.6958 25.774 77.8465 25.8611C77.9972 25.9481 77.9972 26.0826 77.8465 26.1696Z" fill="#004128"/>
<path d="M80.4761 27.6886C80.3117 27.7835 80.0377 27.7835 79.8733 27.6886C79.7089 27.5936 79.7089 27.4354 79.8733 27.3405C80.0377 27.2455 80.3117 27.2455 80.4761 27.3405C80.6405 27.4354 80.6405 27.5936 80.4761 27.6886Z" fill="#004128"/>
<path d="M83.1069 29.2075C82.9151 29.3182 82.6137 29.3182 82.4356 29.2075C82.2575 29.0967 82.2438 28.9227 82.4356 28.8198C82.6274 28.717 82.9288 28.7091 83.1069 28.8198C83.285 28.9306 83.2987 29.1046 83.1069 29.2075Z" fill="#004128"/>
<path d="M85.7494 30.7342C85.5439 30.8529 85.2014 30.8529 84.9959 30.7342C84.7904 30.6156 84.7904 30.4178 84.9959 30.2991C85.2014 30.1805 85.5439 30.1805 85.7494 30.2991C85.9549 30.4178 85.9549 30.6156 85.7494 30.7342Z" fill="#004128"/>
<path d="M88.3802 32.2536C88.1473 32.3881 87.7774 32.3881 87.5582 32.2536C87.339 32.1191 87.3253 31.9055 87.5582 31.779C87.7911 31.6524 88.161 31.6445 88.3802 31.779C88.5994 31.9134 88.6131 32.127 88.3802 32.2536Z" fill="#004128"/>
<path d="M82.8329 23.2819C82.6822 23.3689 82.4493 23.3689 82.2986 23.2819C82.1479 23.1949 82.1479 23.0604 82.2986 22.9734C82.4493 22.8863 82.6822 22.8863 82.8329 22.9734C82.9836 23.0604 82.9836 23.1949 82.8329 23.2819Z" fill="#004128"/>
<path d="M85.4624 24.8087C85.298 24.9036 85.024 24.9036 84.8596 24.8087C84.6952 24.7137 84.6952 24.5555 84.8596 24.4606C85.024 24.3657 85.298 24.3657 85.4624 24.4606C85.6268 24.5555 85.6268 24.7137 85.4624 24.8087Z" fill="#004128"/>
<path d="M88.1069 26.3276C87.9151 26.4383 87.6137 26.4383 87.4356 26.3276C87.2575 26.2168 87.2438 26.0428 87.4356 25.9399C87.6274 25.8371 87.9288 25.8292 88.1069 25.9399C88.285 26.0507 88.2987 26.2247 88.1069 26.3276Z" fill="#004128"/>
<path d="M87.8192 20.4025C87.6685 20.4895 87.4356 20.4895 87.2849 20.4025C87.1342 20.3155 87.1342 20.181 87.2849 20.094C87.4356 20.007 87.6685 20.007 87.8192 20.094C87.9699 20.181 87.9699 20.3155 87.8192 20.4025Z" fill="#004128"/>
</svg>
